<?xml version="1.0" encoding="UTF-8"?>
<svg id="Layer_1" data-name="Layer 1" xmlns="http://www.w3.org/2000/svg" width="300" height="300" viewBox="0 0 300 300">
  <defs>
    <style>
      .cls-1 {
        fill: #33516f;
      }

      .cls-2 {
        fill: #00264b;
      }
    </style>
  </defs>
  <g>
    <polygon class="cls-1" points="163.6 102.7 135.2 93.6 148.2 63.2 126.6 38.9 111.6 67.2 83.4 82 69.3 115.5 165.4 115.5 163.6 102.7"/>
    <polygon class="cls-1" points="151.8 62.7 139.3 91.8 166.3 100.4 168.4 115.5 247.6 115.6 203.6 85.8 178.6 55.3 130.2 38.5 151.8 62.7"/>
  </g>
  <g>
    <path class="cls-2" d="M287.6,202.9c-.2-.2-.3-.5-.5-.7-6.5-9.5-17.4-15.8-29.8-15.8s-12.5,1.7-17.8,4.7c-5.5,3.1-10.1,7.7-13.3,13.1-.7,1.1-1.3,2.3-1.8,3.5-4.3,6.9-12,11.6-20.8,11.6s-16.5-4.6-20.8-11.6c-.5-1.2-1.1-2.3-1.8-3.5-3.2-5.5-7.8-10-13.3-13.1-5.3-3-11.3-4.7-17.8-4.7s-12.5,1.7-17.8,4.7c-5.5,3.1-10.1,7.7-13.3,13.1-.7,1.1-1.3,2.3-1.8,3.5-4.3,6.9-12,11.6-20.8,11.6s-16.5-4.6-20.8-11.6c-.5-1.2-1.1-2.3-1.8-3.5-3.2-5.5-7.8-10-13.3-13.1-5.3-3-11.3-4.7-17.8-4.7-12.2,0-22.9,6-29.5,15.2-.2.2-.3.4-.5.6-.6.9-.9,1.9-.9,3.1,0,3.2,2.6,5.8,5.8,5.8s3.6-.9,4.7-2.4c0,0,.1-.2.2-.3,4.4-6.4,11.8-10.5,20.1-10.5s16.5,4.6,20.8,11.6c.5,1.2,1.1,2.3,1.8,3.5,3.2,5.5,7.8,10,13.3,13.1,5.3,3,11.3,4.7,17.8,4.7s12.5-1.7,17.8-4.7c5.5-3.1,10.1-7.7,13.3-13.1.7-1.1,1.3-2.3,1.8-3.5,4.3-6.9,12-11.6,20.8-11.6s16.5,4.6,20.8,11.6c.5,1.2,1.1,2.3,1.8,3.5,3.2,5.5,7.8,10,13.3,13.1,5.3,3,11.3,4.7,17.8,4.7s12.5-1.7,17.8-4.7c5.5-3.1,10.1-7.7,13.3-13.1.7-1.1,1.3-2.3,1.8-3.5,4.3-6.9,12-11.6,20.8-11.6s15.8,4.3,20.3,10.7c0,0,.1.2.2.3,1.1,1.5,2.8,2.5,4.8,2.5,3.2,0,5.8-2.6,5.8-5.8s-.3-2-.7-2.8Z"/>
    <path class="cls-2" d="M287.6,162.9c-.2-.2-.3-.5-.5-.7-6.5-9.5-17.4-15.8-29.8-15.8s-12.5,1.7-17.8,4.7c-5.5,3.1-10.1,7.7-13.3,13.1-.7,1.1-1.3,2.3-1.8,3.5-4.3,6.9-12,11.6-20.8,11.6s-16.5-4.6-20.8-11.6c-.5-1.2-1.1-2.3-1.8-3.5-3.2-5.5-7.8-10-13.3-13.1-5.3-3-11.3-4.7-17.8-4.7s-12.5,1.7-17.8,4.7c-5.5,3.1-10.1,7.7-13.3,13.1-.7,1.1-1.3,2.3-1.8,3.5-4.3,6.9-12,11.6-20.8,11.6s-16.5-4.6-20.8-11.6c-.5-1.2-1.1-2.3-1.8-3.5-3.2-5.5-7.8-10-13.3-13.1-5.3-3-11.3-4.7-17.8-4.7-12.2,0-22.9,6-29.5,15.2-.2.2-.3.4-.5.6-.6.9-.9,1.9-.9,3.1,0,3.2,2.6,5.8,5.8,5.8s3.6-.9,4.7-2.4c0,0,.1-.2.2-.3,4.4-6.4,11.8-10.5,20.1-10.5s16.5,4.6,20.8,11.6c.5,1.2,1.1,2.3,1.8,3.5,3.2,5.5,7.8,10,13.3,13.1,5.3,3,11.3,4.7,17.8,4.7s12.5-1.7,17.8-4.7c5.5-3.1,10.1-7.7,13.3-13.1.7-1.1,1.3-2.3,1.8-3.5,4.3-6.9,12-11.6,20.8-11.6s16.5,4.6,20.8,11.6c.5,1.2,1.1,2.3,1.8,3.5,3.2,5.5,7.8,10,13.3,13.1,5.3,3,11.3,4.7,17.8,4.7s12.5-1.7,17.8-4.7c5.5-3.1,10.1-7.7,13.3-13.1.7-1.1,1.3-2.3,1.8-3.5,4.3-6.9,12-11.6,20.8-11.6s15.8,4.3,20.3,10.7c0,0,.1.2.2.3,1.1,1.5,2.8,2.5,4.8,2.5,3.2,0,5.8-2.6,5.8-5.8s-.3-2-.7-2.8Z"/>
  </g>
  <path class="cls-2" d="M287.6,121.6c-.2-.2-.3-.5-.5-.7-1.1-1.4-2.7-2.3-4.6-2.3s-.4,0-.5,0H18c-.2,0-.4,0-.5,0-1.8,0-3.4.8-4.5,2.1-.2.2-.3.4-.5.6-.6.9-.9,1.9-.9,3.1,0,3.2,2.6,5.8,5.8,5.8s.3,0,.5,0h264.1c.1,0,.3,0,.4,0,3.2,0,5.8-2.6,5.8-5.8s-.3-2-.7-2.8Z"/>
</svg>