<?xml version="1.0" encoding="UTF-8"?>
<svg id="Layer_1" data-name="Layer 1" xmlns="http://www.w3.org/2000/svg" width="300" height="300" viewBox="0 0 300 300">
  <defs>
    <style>
      .cls-1 {
        fill: #33516f;
      }

      .cls-2 {
        fill: #00264b;
      }
    </style>
  </defs>
  <g>
    <path class="cls-1" d="M287.6,122.9c-.2-.2-.3-.5-.5-.7-2.2-3.3-5-6.2-8.2-8.6-.5-.5-1.1-.9-1.7-1.2-.8-.4-1.6-.6-2.5-.6-3.3,0-6,2.7-6,6s.3,2.3.9,3.2c0,0,.1.2.2.3,0,.1.2.2.3.4.7.8,1.6,1.5,2.6,1.9,1.9,1.5,3.5,3.3,4.9,5.3,0,0,.1.2.2.3,1.1,1.5,2.8,2.5,4.8,2.5,3.2,0,5.8-2.6,5.8-5.8s-.3-2-.7-2.8Z"/>
    <path class="cls-1" d="M257.3,109c-1-1.4-2.7-2.3-4.5-2.4,0,0-.2,0-.2,0-.7,0-1.5.1-2.1.4-3.7.7-7.3,2-10.5,3.8-1.1.3-2,.9-2.7,1.7-1,1.1-1.6,2.5-1.6,4.1s.3,2.3.9,3.2c0,0,.1.2.2.3.6.8,1.4,1.5,2.4,2,.8.4,1.6.6,2.5.6s1.4-.1,2-.3c.8-.3,1.6-.7,2.2-1.3,2-1.1,4.1-1.9,6.3-2.4.2,0,.4,0,.6,0,.9,0,1.7-.2,2.4-.5,2.1-.9,3.6-3,3.6-5.5s-.3-2-.7-2.9c-.2-.3-.3-.5-.5-.8Z"/>
    <path class="cls-1" d="M232.3,130c-1.1-1.4-2.8-2.4-4.8-2.4s-2.6.5-3.6,1.2c0,0,0,0-.3.3h0c-.2.2-.5.5-.8.8,0,0,0,0,0,0-1.4,1.4-3.7,3.9-5.6,5.1-.6.2-1.1.6-1.6,1-1.3,1.1-2.1,2.7-2.1,4.5s.3,2.3.9,3.2c0,0,.1.2.2.3,1.1,1.5,2.9,2.6,4.9,2.6s.9,0,1.3-.1c1.4-.3,2.5-1,3.4-2.1,2.3-1.6,4.5-3.5,6.3-5.6,1.3-.8,2.3-2,2.8-3.5.2-.5.2-1.1.2-1.7,0-1-.3-2-.7-2.9-.2-.3-.3-.5-.5-.8Z"/>
    <path class="cls-1" d="M204.3,141c-.6-.8-1.4-1.4-2.3-1.8-.8-.3-1.6-.5-2.5-.5s-.6,0-.9,0c-1.9-.4-3.7-1-5.4-1.8-.6-.4-1.2-.8-1.9-1-.6-.2-1.1-.3-1.8-.3-1.5,0-2.9.6-4,1.5-1.3,1.1-2,2.7-2,4.5s.3,2.3.9,3.2c0,0,.1.2.2.3.2.3.4.5.7.8.8.8,1.9,1.4,3.2,1.7,2.9,1.4,6.1,2.3,9.4,2.9.5.2,1.1.2,1.7.2s0,0,0,0c3.3,0,5.9-2.7,5.9-6s-.3-2-.7-2.9c-.2-.3-.3-.5-.5-.8Z"/>
    <path class="cls-1" d="M180.8,123.8c-.2-.3-.3-.5-.5-.8,0,0,0,0,0,0-1.9-3-4.3-5.7-7.1-8.1-.2-.2-.3-.4-.5-.6l-4,12.5c.4.4.7.9,1,1.3.2.6.4,1.2.7,1.7,0,0,.1.2.2.3.2.3.5.6.7.8,0,0,.2.2.3.2,1.1.9,2.4,1.5,3.9,1.5,3.3,0,6-2.7,6-6s-.2-1.9-.7-2.7c0,0,0,0,0-.1Z"/>
  </g>
  <g>
    <path class="cls-1" d="M287.6,162.9c-.2-.2-.3-.5-.5-.7-2.2-3.3-5-6.2-8.2-8.6-.5-.5-1.1-.9-1.7-1.2-.8-.4-1.6-.6-2.5-.6-3.3,0-6,2.7-6,6s.3,2.3.9,3.2c0,0,.1.2.2.3,0,.1.2.2.3.4.7.8,1.6,1.5,2.6,1.9,1.9,1.5,3.5,3.3,4.9,5.3,0,0,.1.2.2.3,1.1,1.5,2.8,2.5,4.8,2.5,3.2,0,5.8-2.6,5.8-5.8s-.3-2-.7-2.8Z"/>
    <path class="cls-1" d="M257.3,149c-1-1.4-2.7-2.3-4.5-2.4,0,0-.2,0-.2,0-.7,0-1.5.1-2.1.4-3.7.7-7.3,2-10.5,3.8-1.1.3-2,.9-2.7,1.7-1,1.1-1.6,2.5-1.6,4.1s.3,2.3.9,3.2c0,0,.1.2.2.3.6.8,1.4,1.5,2.4,2,.8.4,1.6.6,2.5.6s1.4-.1,2-.3c.8-.3,1.6-.7,2.2-1.3,2-1.1,4.1-1.9,6.3-2.4.2,0,.4,0,.6,0,.9,0,1.7-.2,2.4-.5,2.1-.9,3.6-3,3.6-5.5s-.3-2-.7-2.9c-.2-.3-.3-.5-.5-.8Z"/>
    <path class="cls-1" d="M232.3,170c-1.1-1.4-2.8-2.4-4.8-2.4s-2.6.5-3.6,1.2c0,0,0,0-.3.3h0c-.2.2-.5.5-.8.8,0,0,0,0,0,0-1.4,1.4-3.7,3.9-5.6,5.1-.6.2-1.1.6-1.6,1-1.3,1.1-2.1,2.7-2.1,4.5s.3,2.3.9,3.2c0,0,.1.2.2.3,1.1,1.5,2.9,2.6,4.9,2.6s.9,0,1.3-.1c1.4-.3,2.5-1,3.4-2.1,2.3-1.6,4.5-3.5,6.3-5.6,1.3-.8,2.3-2,2.8-3.5.2-.5.2-1.1.2-1.7,0-1-.3-2-.7-2.9-.2-.3-.3-.5-.5-.8Z"/>
    <path class="cls-1" d="M204.3,181c-.6-.8-1.4-1.4-2.3-1.8-.8-.3-1.6-.5-2.5-.5s-.6,0-.9,0c-1.9-.4-3.7-1-5.4-1.8-.6-.4-1.2-.8-1.9-1-.6-.2-1.1-.3-1.8-.3-1.5,0-2.9.6-4,1.5-1.3,1.1-2,2.7-2,4.5s.3,2.3.9,3.2c0,0,.1.2.2.3.2.3.4.5.7.8.8.8,1.9,1.4,3.2,1.7,2.9,1.4,6.1,2.3,9.4,2.9.5.2,1.1.2,1.7.2s0,0,0,0c3.3,0,5.9-2.7,5.9-6s-.3-2-.7-2.9c-.2-.3-.3-.5-.5-.8Z"/>
    <path class="cls-1" d="M180.8,163.8c-.2-.3-.3-.5-.5-.8,0,0,0,0,0,0-1.9-3-4.3-5.7-7.1-8.1-.6-.8-1.4-1.4-2.3-1.8-.7-.3-1.6-.5-2.4-.5s-.6,0-.9,0c-2.9.5-5.1,2.9-5.1,5.9s.3,2.3.9,3.2c0,0,.1.2.2.3,0,.1.2.2.2.3.6.7,1.3,1.3,2.2,1.7,1.4,1.2,2.6,2.6,3.7,4.1.2.6.4,1.2.7,1.7,0,0,.1.2.2.3.2.3.5.6.7.8,0,0,.2.2.3.2,1.1.9,2.4,1.5,3.9,1.5,3.3,0,6-2.7,6-6s-.2-1.9-.7-2.7c0,0,0,0,0-.1Z"/>
  </g>
  <g>
    <path class="cls-1" d="M287.6,202.9c-.2-.2-.3-.5-.5-.7-2.2-3.3-5-6.2-8.2-8.6-.5-.5-1.1-.9-1.7-1.2-.8-.4-1.6-.6-2.5-.6-3.3,0-6,2.7-6,6s.3,2.3.9,3.2c0,0,.1.2.2.3,0,.1.2.2.3.4.7.8,1.6,1.5,2.6,1.9,1.9,1.5,3.5,3.3,4.9,5.3,0,0,.1.2.2.3,1.1,1.5,2.8,2.5,4.8,2.5,3.2,0,5.8-2.6,5.8-5.8s-.3-2-.7-2.8Z"/>
    <path class="cls-1" d="M257.3,189c-1-1.4-2.7-2.3-4.5-2.4,0,0-.2,0-.2,0-.7,0-1.5.1-2.1.4-3.7.7-7.3,2-10.5,3.8-1.1.3-2,.9-2.7,1.7-1,1.1-1.6,2.5-1.6,4.1s.3,2.3.9,3.2c0,0,.1.2.2.3.6.8,1.4,1.5,2.4,2,.8.4,1.6.6,2.5.6s1.4-.1,2-.3c.8-.3,1.6-.7,2.2-1.3,2-1.1,4.1-1.9,6.3-2.4.2,0,.4,0,.6,0,.9,0,1.7-.2,2.4-.5,2.1-.9,3.6-3,3.6-5.5s-.3-2-.7-2.9c-.2-.3-.3-.5-.5-.8Z"/>
    <path class="cls-1" d="M232.3,210c-1.1-1.4-2.8-2.4-4.8-2.4s-2.6.5-3.6,1.2c0,0,0,0-.3.3h0c-.2.2-.5.5-.8.8,0,0,0,0,0,0-1.4,1.4-3.7,3.9-5.6,5.1-.6.2-1.1.6-1.6,1-1.3,1.1-2.1,2.7-2.1,4.5s.3,2.3.9,3.2c0,0,.1.2.2.3,1.1,1.5,2.9,2.6,4.9,2.6s.9,0,1.3-.1c1.4-.3,2.5-1,3.4-2.1,2.3-1.6,4.5-3.5,6.3-5.6,1.3-.8,2.3-2,2.8-3.5.2-.5.2-1.1.2-1.7,0-1-.3-2-.7-2.9-.2-.3-.3-.5-.5-.8Z"/>
    <path class="cls-1" d="M204.3,221c-.6-.8-1.4-1.4-2.3-1.8-.8-.3-1.6-.5-2.5-.5s-.6,0-.9,0c-1.9-.4-3.7-1-5.4-1.8-.6-.4-1.2-.8-1.9-1-.6-.2-1.1-.3-1.8-.3-1.5,0-2.9.6-4,1.5-1.3,1.1-2,2.7-2,4.5s.3,2.3.9,3.2c0,0,.1.2.2.3.2.3.4.5.7.8.8.8,1.9,1.4,3.2,1.7,2.9,1.4,6.1,2.3,9.4,2.9.5.2,1.1.2,1.7.2s0,0,0,0c3.3,0,5.9-2.7,5.9-6s-.3-2-.7-2.9c-.2-.3-.3-.5-.5-.8Z"/>
    <path class="cls-1" d="M180.8,203.8c-.2-.3-.3-.5-.5-.8,0,0,0,0,0,0-1.9-3-4.3-5.7-7.1-8.1-.6-.8-1.4-1.4-2.3-1.8-.7-.3-1.6-.5-2.4-.5s-.6,0-.9,0c-2.9.5-5.1,2.9-5.1,5.9s.3,2.3.9,3.2c0,0,.1.2.2.3,0,.1.2.2.2.3.6.7,1.3,1.3,2.2,1.7,1.4,1.2,2.6,2.6,3.7,4.1.2.6.4,1.2.7,1.7,0,0,.1.2.2.3.2.3.5.6.7.8,0,0,.2.2.3.2,1.1.9,2.4,1.5,3.9,1.5,3.3,0,6-2.7,6-6s-.2-1.9-.7-2.7c0,0,0,0,0-.1Z"/>
    <path class="cls-1" d="M153.2,188.5c-.8-1-1.8-1.8-3.1-2.1-.2,0-.4,0-.5-.1l-3.9,12.1c.7-.1,1.5-.2,2.3-.3.2,0,.3,0,.5,0,.4,0,.7,0,1.1-.1,2.8-.5,4.9-3,4.9-5.9s-.3-2-.7-2.9c-.2-.3-.3-.5-.5-.8Z"/>
  </g>
  <g>
    <path class="cls-2" d="M127.2,213.2l7.6-23.5c-.9.4-1.8.9-2.7,1.4-5.5,3.1-10.1,7.7-13.3,13.1-.7,1.1-1.3,2.3-1.8,3.5-4.3,6.9-12,11.6-20.8,11.6s-16.5-4.6-20.8-11.6c-.5-1.2-1.1-2.3-1.8-3.5-3.2-5.5-7.8-10-13.3-13.1-5.3-3-11.3-4.7-17.8-4.7-12.2,0-22.9,6-29.5,15.2-.2.2-.3.4-.5.6-.6.9-.9,1.9-.9,3.1,0,3.2,2.6,5.8,5.8,5.8s3.6-.9,4.7-2.4c0,0,.1-.2.2-.3,4.4-6.4,11.8-10.5,20.1-10.5s16.5,4.6,20.8,11.6c.5,1.2,1.1,2.3,1.8,3.5,3.2,5.5,7.8,10,13.3,13.1,5.3,3,11.3,4.7,17.8,4.7s12.5-1.7,17.8-4.7c5.5-3.1,10-7.6,13.2-13Z"/>
    <path class="cls-2" d="M127.3,173c.7-1.1,1.3-2.3,1.8-3.5,3.5-5.6,9.1-9.6,15.7-11l3.9-12.1c-6,.2-11.7,1.9-16.6,4.7-5.5,3.1-10.1,7.7-13.3,13.1-.7,1.1-1.3,2.3-1.8,3.5-4.3,6.9-12,11.6-20.8,11.6s-16.5-4.6-20.8-11.6c-.5-1.2-1.1-2.3-1.8-3.5-3.2-5.5-7.8-10-13.3-13.1-5.3-3-11.3-4.7-17.8-4.7-12.2,0-22.9,6-29.5,15.2-.2.2-.3.4-.5.6-.6.9-.9,1.9-.9,3.1,0,3.2,2.6,5.8,5.8,5.8s3.6-.9,4.7-2.4c0,0,.1-.2.2-.3,4.4-6.4,11.8-10.5,20.1-10.5s16.5,4.6,20.8,11.6c.5,1.2,1.1,2.3,1.8,3.5,3.2,5.5,7.8,10,13.3,13.1,5.3,3,11.3,4.7,17.8,4.7s12.5-1.7,17.8-4.7c5.5-3.1,10.1-7.7,13.3-13.1Z"/>
    <path class="cls-2" d="M127.3,133c.7-1.1,1.3-2.3,1.8-3.5,4.3-6.9,12-11.6,20.8-11.6s5.2.4,7.6,1.2l3.6-11.1c-3.5-1.1-7.2-1.8-11.1-1.8-6.5,0-12.5,1.7-17.8,4.7-5.5,3.1-10.1,7.7-13.3,13.1-.7,1.1-1.3,2.3-1.8,3.5-4.3,6.9-12,11.6-20.8,11.6s-16.5-4.6-20.8-11.6c-.5-1.2-1.1-2.3-1.8-3.5-3.2-5.5-7.8-10-13.3-13.1-5.3-3-11.3-4.7-17.8-4.7-12.2,0-22.9,6-29.5,15.2-.2.2-.3.4-.5.6-.6.9-.9,1.9-.9,3.1,0,3.2,2.6,5.8,5.8,5.8s3.6-.9,4.7-2.4c0,0,.1-.2.2-.3,4.4-6.4,11.8-10.5,20.1-10.5s16.5,4.6,20.8,11.6c.5,1.2,1.1,2.3,1.8,3.5,3.2,5.5,7.8,10,13.3,13.1,5.3,3,11.3,4.7,17.8,4.7s12.5-1.7,17.8-4.7c5.5-3.1,10.1-7.7,13.3-13.1Z"/>
  </g>
  <path class="cls-1" d="M118.2,267.6c-.5,0-1,0-1.5-.2-2.6-.8-4.1-3.7-3.2-6.3l63.5-197.4c.8-2.6,3.7-4.1,6.3-3.2,2.6.8,4.1,3.7,3.2,6.3l-63.5,197.4c-.7,2.1-2.6,3.5-4.8,3.5Z"/>
</svg>