<?xml version="1.0" encoding="UTF-8"?>
<svg id="Layer_1" data-name="Layer 1" xmlns="http://www.w3.org/2000/svg" width="300" height="300" viewBox="0 0 300 300">
  <defs>
    <style>
      .cls-1 {
        fill: #00264b;
      }
    </style>
  </defs>
  <path class="cls-1" d="M287.6,202.9c-.2-.2-.3-.5-.5-.7-6.5-9.5-17.4-15.8-29.8-15.8s-12.5,1.7-17.8,4.7c-5.5,3.1-10.1,7.7-13.3,13.1-.7,1.1-1.3,2.3-1.8,3.5-4.3,6.9-12,11.6-20.8,11.6s-16.5-4.6-20.8-11.6c-.5-1.2-1.1-2.3-1.8-3.5-3.2-5.5-7.8-10-13.3-13.1-5.3-3-11.3-4.7-17.8-4.7s-12.5,1.7-17.8,4.7c-5.5,3.1-10.1,7.7-13.3,13.1-.7,1.1-1.3,2.3-1.8,3.5-4.3,6.9-12,11.6-20.8,11.6s-16.5-4.6-20.8-11.6c-.5-1.2-1.1-2.3-1.8-3.5-3.2-5.5-7.8-10-13.3-13.1-5.3-3-11.3-4.7-17.8-4.7-12.2,0-22.9,6-29.5,15.2-.2.2-.3.4-.5.6-.6.9-.9,1.9-.9,3.1,0,3.2,2.6,5.8,5.8,5.8s3.6-.9,4.7-2.4c0,0,.1-.2.2-.3,4.4-6.4,11.8-10.5,20.1-10.5s16.5,4.6,20.8,11.6c.5,1.2,1.1,2.3,1.8,3.5,3.2,5.5,7.8,10,13.3,13.1,5.3,3,11.3,4.7,17.8,4.7s12.5-1.7,17.8-4.7c5.5-3.1,10.1-7.7,13.3-13.1.7-1.1,1.3-2.3,1.8-3.5,4.3-6.9,12-11.6,20.8-11.6s16.5,4.6,20.8,11.6c.5,1.2,1.1,2.3,1.8,3.5,3.2,5.5,7.8,10,13.3,13.1,5.3,3,11.3,4.7,17.8,4.7s12.5-1.7,17.8-4.7c5.5-3.1,10.1-7.7,13.3-13.1.7-1.1,1.3-2.3,1.8-3.5,4.3-6.9,12-11.6,20.8-11.6s15.8,4.3,20.3,10.7c0,0,.1.2.2.3,1.1,1.5,2.8,2.5,4.8,2.5,3.2,0,5.8-2.6,5.8-5.8s-.3-2-.7-2.8Z"/>
  <path class="cls-1" d="M287.6,162.9c-.2-.2-.3-.5-.5-.7-6.5-9.5-17.4-15.8-29.8-15.8s-12.5,1.7-17.8,4.7c-5.5,3.1-10.1,7.7-13.3,13.1-.7,1.1-1.3,2.3-1.8,3.5-4.3,6.9-12,11.6-20.8,11.6s-16.5-4.6-20.8-11.6c-.5-1.2-1.1-2.3-1.8-3.5-3.2-5.5-7.8-10-13.3-13.1-5.3-3-11.3-4.7-17.8-4.7s-12.5,1.7-17.8,4.7c-5.5,3.1-10.1,7.7-13.3,13.1-.7,1.1-1.3,2.3-1.8,3.5-4.3,6.9-12,11.6-20.8,11.6s-16.5-4.6-20.8-11.6c-.5-1.2-1.1-2.3-1.8-3.5-3.2-5.5-7.8-10-13.3-13.1-5.3-3-11.3-4.7-17.8-4.7-12.2,0-22.9,6-29.5,15.2-.2.2-.3.4-.5.6-.6.9-.9,1.9-.9,3.1,0,3.2,2.6,5.8,5.8,5.8s3.6-.9,4.7-2.4c0,0,.1-.2.2-.3,4.4-6.4,11.8-10.5,20.1-10.5s16.5,4.6,20.8,11.6c.5,1.2,1.1,2.3,1.8,3.5,3.2,5.5,7.8,10,13.3,13.1,5.3,3,11.3,4.7,17.8,4.7s12.5-1.7,17.8-4.7c5.5-3.1,10.1-7.7,13.3-13.1.7-1.1,1.3-2.3,1.8-3.5,4.3-6.9,12-11.6,20.8-11.6s16.5,4.6,20.8,11.6c.5,1.2,1.1,2.3,1.8,3.5,3.2,5.5,7.8,10,13.3,13.1,5.3,3,11.3,4.7,17.8,4.7s12.5-1.7,17.8-4.7c5.5-3.1,10.1-7.7,13.3-13.1.7-1.1,1.3-2.3,1.8-3.5,4.3-6.9,12-11.6,20.8-11.6s15.8,4.3,20.3,10.7c0,0,.1.2.2.3,1.1,1.5,2.8,2.5,4.8,2.5,3.2,0,5.8-2.6,5.8-5.8s-.3-2-.7-2.8Z"/>
  <path class="cls-1" d="M287.6,122.9c-.2-.2-.3-.5-.5-.7-6.5-9.5-17.4-15.8-29.8-15.8s-12.5,1.7-17.8,4.7c-5.5,3.1-10.1,7.7-13.3,13.1-.7,1.1-1.3,2.3-1.8,3.5-4.3,6.9-12,11.6-20.8,11.6s-16.5-4.6-20.8-11.6c-.5-1.2-1.1-2.3-1.8-3.5-3.2-5.5-7.8-10-13.3-13.1-5.3-3-11.3-4.7-17.8-4.7s-12.5,1.7-17.8,4.7c-5.5,3.1-10.1,7.7-13.3,13.1-.7,1.1-1.3,2.3-1.8,3.5-4.3,6.9-12,11.6-20.8,11.6s-16.5-4.6-20.8-11.6c-.5-1.2-1.1-2.3-1.8-3.5-3.2-5.5-7.8-10-13.3-13.1-5.3-3-11.3-4.7-17.8-4.7-12.2,0-22.9,6-29.5,15.2-.2.2-.3.4-.5.6-.6.9-.9,1.9-.9,3.1,0,3.2,2.6,5.8,5.8,5.8s3.6-.9,4.7-2.4c0,0,.1-.2.2-.3,4.4-6.4,11.8-10.5,20.1-10.5s16.5,4.6,20.8,11.6c.5,1.2,1.1,2.3,1.8,3.5,3.2,5.5,7.8,10,13.3,13.1,5.3,3,11.3,4.7,17.8,4.7s12.5-1.7,17.8-4.7c5.5-3.1,10.1-7.7,13.3-13.1.7-1.1,1.3-2.3,1.8-3.5,4.3-6.9,12-11.6,20.8-11.6s16.5,4.6,20.8,11.6c.5,1.2,1.1,2.3,1.8,3.5,3.2,5.5,7.8,10,13.3,13.1,5.3,3,11.3,4.7,17.8,4.7s12.5-1.7,17.8-4.7c5.5-3.1,10.1-7.7,13.3-13.1.7-1.1,1.3-2.3,1.8-3.5,4.3-6.9,12-11.6,20.8-11.6s15.8,4.3,20.3,10.7c0,0,.1.2.2.3,1.1,1.5,2.8,2.5,4.8,2.5,3.2,0,5.8-2.6,5.8-5.8s-.3-2-.7-2.8Z"/>
</svg>