<?xml version="1.0" encoding="UTF-8"?>
<svg id="Layer_1" data-name="Layer 1" xmlns="http://www.w3.org/2000/svg" width="300" height="300" viewBox="0 0 300 300">
  <defs>
    <style>
      .cls-1 {
        fill: #33516f;
      }

      .cls-2 {
        fill: #00264b;
      }
    </style>
  </defs>
  <g>
    <path class="cls-2" d="M287.6,202.9c-.2-.2-.3-.5-.5-.7-6.5-9.5-17.4-15.8-29.8-15.8s-12.5,1.7-17.8,4.7c-5.5,3.1-10.1,7.7-13.3,13.1-.7,1.1-1.3,2.3-1.8,3.5-4.3,6.9-12,11.6-20.8,11.6s-16.5-4.6-20.8-11.6c-.5-1.2-1.1-2.3-1.8-3.5-3.2-5.5-7.8-10-13.3-13.1-5.3-3-11.3-4.7-17.8-4.7s-12.5,1.7-17.8,4.7c-5.5,3.1-10.1,7.7-13.3,13.1-.7,1.1-1.3,2.3-1.8,3.5-4.3,6.9-12,11.6-20.8,11.6s-16.5-4.6-20.8-11.6c-.5-1.2-1.1-2.3-1.8-3.5-3.2-5.5-7.8-10-13.3-13.1-5.3-3-11.3-4.7-17.8-4.7-12.2,0-22.9,6-29.5,15.2-.2.2-.3.4-.5.6-.6.9-.9,1.9-.9,3.1,0,3.2,2.6,5.8,5.8,5.8s3.6-.9,4.7-2.4c0,0,.1-.2.2-.3,4.4-6.4,11.8-10.5,20.1-10.5s16.5,4.6,20.8,11.6c.5,1.2,1.1,2.3,1.8,3.5,3.2,5.5,7.8,10,13.3,13.1,5.3,3,11.3,4.7,17.8,4.7s12.5-1.7,17.8-4.7c5.5-3.1,10.1-7.7,13.3-13.1.7-1.1,1.3-2.3,1.8-3.5,4.3-6.9,12-11.6,20.8-11.6s16.5,4.6,20.8,11.6c.5,1.2,1.1,2.3,1.8,3.5,3.2,5.5,7.8,10,13.3,13.1,5.3,3,11.3,4.7,17.8,4.7s12.5-1.7,17.8-4.7c5.5-3.1,10.1-7.7,13.3-13.1.7-1.1,1.3-2.3,1.8-3.5,4.3-6.9,12-11.6,20.8-11.6s15.8,4.3,20.3,10.7c0,0,.1.2.2.3,1.1,1.5,2.8,2.5,4.8,2.5,3.2,0,5.8-2.6,5.8-5.8s-.3-2-.7-2.8Z"/>
    <g>
      <path class="cls-2" d="M287.6,162.9c-.2-.2-.3-.5-.5-.7-6.5-9.5-17.4-15.8-29.8-15.8s-12.5,1.7-17.8,4.7c-5.5,3.1-10.1,7.7-13.3,13.1-.7,1.1-1.3,2.3-1.8,3.5-4.3,6.9-12,11.6-20.8,11.6s-12.8-2.7-17.2-7.1c-3.5,2-7.2,3.7-11.1,5.1,2.9,3.6,6.4,6.6,10.4,8.9,5.3,3,11.3,4.7,17.8,4.7s12.5-1.7,17.8-4.7c5.5-3.1,10.1-7.7,13.3-13.1.7-1.1,1.3-2.3,1.8-3.5,4.3-6.9,12-11.6,20.8-11.6s15.8,4.3,20.3,10.7c0,0,.1.2.2.3,1.1,1.5,2.8,2.5,4.8,2.5,3.2,0,5.8-2.6,5.8-5.8s-.3-2-.7-2.8Z"/>
      <path class="cls-2" d="M113.4,172.1c-4.4,4.4-10.5,7.1-17.2,7.1s-16.5-4.6-20.8-11.6c-.5-1.2-1.1-2.3-1.8-3.5-3.2-5.5-7.8-10-13.3-13.1-5.3-3-11.3-4.7-17.8-4.7-12.2,0-22.9,6-29.5,15.2-.2.2-.3.4-.5.6-.6.9-.9,1.9-.9,3.1,0,3.2,2.6,5.8,5.8,5.8s3.6-.9,4.7-2.4c0,0,.1-.2.2-.3,4.4-6.4,11.8-10.5,20.1-10.5s16.5,4.6,20.8,11.6c.5,1.2,1.1,2.3,1.8,3.5,3.2,5.5,7.8,10,13.3,13.1,5.3,3,11.3,4.7,17.8,4.7s12.5-1.7,17.8-4.7c4-2.3,7.6-5.4,10.5-9-3.8-1.4-7.5-3.1-11-5.1Z"/>
    </g>
    <g>
      <path class="cls-2" d="M80.1,133.3c-1.8-1.6-3.5-3.5-4.8-5.6-.5-1.2-1.1-2.3-1.8-3.5-3.2-5.5-7.8-10-13.3-13.1-5.3-3-11.3-4.7-17.8-4.7-12.2,0-22.9,6-29.5,15.2-.2.2-.3.4-.5.6-.6.9-.9,1.9-.9,3.1,0,3.2,2.6,5.8,5.8,5.8s3.6-.9,4.7-2.4c0,0,.1-.2.2-.3,4.4-6.4,11.8-10.5,20.1-10.5s16.5,4.6,20.8,11.6c.5,1.2,1.1,2.3,1.8,3.5,3.2,5.5,7.8,10,13.3,13.1,3.3,1.9,6.9,3.2,10.8,4-3.7-5.2-6.7-10.9-9-16.9Z"/>
      <path class="cls-2" d="M287.6,122.9c-.2-.2-.3-.5-.5-.7-6.5-9.5-17.4-15.8-29.8-15.8s-12.5,1.7-17.8,4.7c-5.5,3.1-10.1,7.7-13.3,13.1-.7,1.1-1.3,2.3-1.8,3.5-1.2,2-2.7,3.7-4.4,5.3-2.3,6.2-5.3,11.9-9.1,17.2,3.7-.8,7.3-2.1,10.5-4,5.5-3.1,10.1-7.7,13.3-13.1.7-1.1,1.3-2.3,1.8-3.5,4.3-6.9,12-11.6,20.8-11.6s15.8,4.3,20.3,10.7c0,0,.1.2.2.3,1.1,1.5,2.8,2.5,4.8,2.5,3.2,0,5.8-2.6,5.8-5.8s-.3-2-.7-2.8Z"/>
    </g>
  </g>
  <path class="cls-1" d="M203.2,131.5l-6.1-3.5,4.2-1.1c2.9-.8,4.7-3.8,3.9-6.7-.8-2.9-3.8-4.7-6.7-3.9l-14.9,3.9-22.5-13,22.5-13,14.9,3.9c.5.1.9.2,1.4.2,2.4,0,4.7-1.6,5.3-4.1.8-2.9-1-5.9-3.9-6.7l-4.2-1.1,6.1-3.5c2.6-1.5,3.5-4.9,2-7.5-1.5-2.6-4.9-3.5-7.5-2l-6.1,3.5,1.1-4.1c.8-2.9-.9-6-3.9-6.8-2.9-.8-6,.9-6.8,3.9l-4.1,14.9-22.5,13v-26l10.8-11c2.1-2.2,2.1-5.6,0-7.8-2.2-2.1-5.6-2.1-7.8,0l-3,3v-7c0-3-2.5-5.5-5.5-5.5s-5.5,2.5-5.5,5.5v7l-3-3c-2.1-2.2-5.6-2.2-7.8,0-2.2,2.1-2.2,5.6,0,7.8l10.8,11v26l-22.5-13-4.1-14.9c-.8-2.9-3.8-4.7-6.8-3.9-2.9.8-4.7,3.8-3.9,6.8l1.1,4.1-6.1-3.5c-2.6-1.5-6-.6-7.5,2-1.5,2.6-.6,6,2,7.5l6.1,3.5-4.2,1.1c-2.9.8-4.7,3.8-3.9,6.7.6,2.5,2.9,4.1,5.3,4.1s.9,0,1.4-.2l14.9-3.9,22.5,13-22.5,13-14.9-3.9c-2.9-.8-5.9,1-6.7,3.9-.8,2.9,1,5.9,3.9,6.7l4.2,1.1-6.1,3.5c-2.6,1.5-3.5,4.9-2,7.5,1,1.8,2.9,2.8,4.8,2.8s1.9-.2,2.7-.7l6.1-3.5-1.1,4.1c-.8,2.9.9,6,3.9,6.8.5.1,1,.2,1.5.2,2.4,0,4.6-1.6,5.3-4l4.1-14.9,22.5-13v26l-10.8,11c-2.1,2.2-2.1,5.6,0,7.8,1.1,1.1,2.5,1.6,3.9,1.6s2.8-.5,3.9-1.6l3-3v7c0,3,2.5,5.5,5.5,5.5s5.5-2.5,5.5-5.5v-7l3,3c1.1,1.1,2.5,1.6,3.9,1.6s2.8-.5,3.9-1.6c2.2-2.1,2.2-5.6,0-7.8l-10.8-11v-26l22.5,13,4.1,14.9c.7,2.4,2.9,4,5.3,4s1,0,1.5-.2c2.9-.8,4.7-3.8,3.9-6.8l-1.1-4.1,6.1,3.5c.9.5,1.8.7,2.7.7,1.9,0,3.7-1,4.8-2.8,1.5-2.6.6-6-2-7.5Z"/>
</svg>