<?xml version="1.0" encoding="UTF-8"?>
<svg id="Layer_1" xmlns="http://www.w3.org/2000/svg" width="198" height="288" xmlns:xlink="http://www.w3.org/1999/xlink" viewBox="0 0 198 288">
  <defs>
    <style>
      .cls-1 {
        stroke-dasharray: .9929 2.9787;
        stroke-width: .52624px;
      }

      .cls-1, .cls-2, .cls-3, .cls-4, .cls-5, .cls-6, .cls-7 {
        fill: none;
      }

      .cls-1, .cls-2, .cls-3, .cls-8, .cls-6, .cls-7, .cls-9 {
        stroke-linejoin: round;
      }

      .cls-1, .cls-5, .cls-6, .cls-7 {
        stroke: #333;
      }

      .cls-10, .cls-11, .cls-12, .cls-13, .cls-14 {
        fill: #333;
        isolation: isolate;
      }

      .cls-10, .cls-12, .cls-15 {
        letter-spacing: .00996em;
      }

      .cls-10, .cls-12, .cls-13, .cls-14 {
        font-size: 10px;
      }

      .cls-10, .cls-13 {
        font-family: SourceSans3-SemiBold, 'Source Sans 3';
        font-variation-settings: 'wght' 600;
        font-weight: 600;
      }

      .cls-16 {
        letter-spacing: .01001em;
      }

      .cls-17, .cls-18, .cls-19 {
        fill: #dcd5a8;
      }

      .cls-17, .cls-19 {
        stroke: #636363;
        stroke-width: .73182px;
      }

      .cls-20 {
        clip-path: url(#clippath-7);
      }

      .cls-21 {
        letter-spacing: -.00596em;
      }

      .cls-22 {
        letter-spacing: .02202em;
      }

      .cls-23 {
        letter-spacing: -.00005em;
      }

      .cls-24 {
        letter-spacing: .00898em;
      }

      .cls-25 {
        letter-spacing: -.01299em;
      }

      .cls-26 {
        letter-spacing: -.01006em;
      }

      .cls-27 {
        letter-spacing: -.0001em;
      }

      .cls-2 {
        stroke: #1a1a1a;
        stroke-width: .92951px;
      }

      .cls-11 {
        font-family: SourceSans3-LightItalic, 'Source Sans 3';
        font-size: 9.25px;
        font-style: italic;
      }

      .cls-11, .cls-12, .cls-14 {
        font-weight: 300;
      }

      .cls-28 {
        fill: #680000;
      }

      .cls-3 {
        stroke-width: 2.91976px;
      }

      .cls-3, .cls-8 {
        stroke: #fff;
      }

      .cls-29, .cls-8, .cls-9, .cls-30 {
        fill: #fff;
      }

      .cls-31 {
        letter-spacing: .00903em;
      }

      .cls-12, .cls-14 {
        font-family: SourceSans3-Light, 'Source Sans 3';
        font-variation-settings: 'wght' 300;
      }

      .cls-32 {
        letter-spacing: .00601em;
      }

      .cls-19, .cls-30 {
        stroke-miterlimit: 10;
      }

      .cls-33 {
        letter-spacing: .02588em;
      }

      .cls-34 {
        letter-spacing: .0459em;
      }

      .cls-35 {
        fill: #a7693f;
      }

      .cls-36 {
        letter-spacing: -.00605em;
      }

      .cls-37 {
        clip-path: url(#clippath-5);
      }

      .cls-38 {
        clip-path: url(#clippath-8);
      }

      .cls-39 {
        letter-spacing: .00005em;
      }

      .cls-8 {
        stroke-width: 1.07px;
      }

      .cls-8, .cls-9 {
        stroke-linecap: round;
      }

      .cls-40 {
        letter-spacing: .01003em;
      }

      .cls-41 {
        clip-path: url(#clippath-3);
      }

      .cls-42 {
        letter-spacing: .00894em;
      }

      .cls-43 {
        letter-spacing: .0001em;
      }

      .cls-44 {
        letter-spacing: .00998em;
      }

      .cls-45 {
        letter-spacing: .004em;
      }

      .cls-5 {
        stroke-width: .5px;
      }

      .cls-6 {
        stroke-width: .43px;
      }

      .cls-46 {
        letter-spacing: -.00098em;
      }

      .cls-7 {
        stroke-width: .75px;
      }

      .cls-47 {
        letter-spacing: .01006em;
      }

      .cls-48 {
        letter-spacing: -.00996em;
      }

      .cls-49 {
        letter-spacing: -.00601em;
      }

      .cls-50 {
        fill: rgba(255, 255, 255, .75);
      }

      .cls-51 {
        letter-spacing: -.01099em;
      }

      .cls-9 {
        stroke-width: .35px;
      }

      .cls-9, .cls-30 {
        stroke: #666;
      }

      .cls-52 {
        letter-spacing: .02603em;
      }

      .cls-53 {
        letter-spacing: -.002em;
      }

      .cls-30 {
        stroke-width: .21px;
      }
    </style>
    <clipPath id="clippath-3">
      <rect class="cls-4" width="198" height="269.28"/>
    </clipPath>
    <clipPath id="clippath-5">
      <rect class="cls-4" x="5.48" y="4.04" width="187.03999" height="249.53999"/>
    </clipPath>
    <clipPath id="clippath-7">
      <rect class="cls-4" x="5.48" y="252.31001" width="187.03999" height="7.48999"/>
    </clipPath>
    <clipPath id="clippath-8">
      <rect class="cls-4" y="-.04856" width="198" height="288"/>
    </clipPath>
  </defs>
  <rect class="cls-29" width="198" height="288"/>
  <g class="cls-41">
    <rect class="cls-8" y="-1.44" width="198" height="270.72"/>
  </g>
  <g class="cls-37">
    <g>
      <rect class="cls-29" x="5.48" y="4.04" width="187.03999" height="249.53999"/>
      <rect class="cls-30" x="126.95" y="46.6" width="3.78" height="120.01"/>
      <polygon class="cls-18" points="5.5 147.34 7.49 148.31 9.48 148.63 11.47 149.14 13.46 149.14 15.45 149.14 17.44 149.14 19.42 149.05 21.41 148.63 23.4 148.36 25.39 147.78999 27.38 146.52 29.37 146 31.36 145.81 33.35 145.2 35.34 144.38 37.33 144.08 39.32 144.08 41.31 144.38 43.3 144.7 45.29 145.41 47.28 145.94 49.27 145.95 51.25 146.21001 53.24 146.25999 55.23 146.25999 57.22 146.25999 59.21 146.25999 61.2 146.21001 63.19 147.09 65.18 147.09 67.17 147.09 69.16 146.52 71.15 145.95 73.14 145.86 75.13 145.82001 77.12 145.95 79.11 145.95 81.1 145.95 83.08 145.95 85.07 145.86 87.06 145.95 89.05 146.21001 91.04 147.09 93.03 147.47 95.02 147.58 97.01 148.06 99 148.11 100.99 147.47 102.98 145.86 104.97 143.50999 106.96 141.64 108.95 139.2 110.94 136.89999 112.93 135.10001 114.92 133.00999 116.9 130.74001 118.89 128.31 120.88 125.06 122.87 122.22 124.86 116.07 126.85 111.79 128.84 109.25 130.83 107.15 132.82001 104.46 134.81 103.47 136.8 101.06 138.78999 98.3 140.78 96.12 142.77 92.96 144.75999 90.16 146.75 88.2 148.73 86.53 150.72 84.83 152.71001 81.1 154.7 77.51 156.69 73.87 158.67999 69.97 160.67 67.27 162.66 64.79 164.64999 62.51 166.64 59.64 168.63 58.32 170.62 57.27 172.61 55.33 174.60001 54.89 176.59 54.19 178.58 53.18 180.56 52.53 182.55 51.96 184.53999 51.53 186.53 51.42 188.52 51.37 190.50999 51.34 192.5 51.37 192.5 78.02 190.50999 78.08 188.52 78.08 186.53 78.5 184.53999 78.5 182.55 78.11 180.56 78.5 178.58 79.59 176.59 80.84 174.60001 82.27 172.61 85.1 170.62 86.22 168.63 88.11 166.64 89.48 164.64999 90.71 162.66 92.74 160.67 96.64 158.67999 100.5 156.69 103.46 154.7 105.69 152.71001 108.14 150.72 111.17 148.73 115.67 146.75 122.5 144.75999 126.94 142.77 131.75 140.78 134.03 138.78999 136.89999 136.8 139.23 134.81 141.69 132.82001 144.7 130.83 148.77 128.84 153.96001 126.85 158.28999 124.86 161.17999 122.87 164.85001 120.88 166.59 118.89 168.42 116.9 169.96001 114.92 171.78 112.93 173.99001 110.94 175.28999 108.95 177.28 106.96 179.33 104.97 179.8 102.98 179.85001 100.99 180 99 180.25 97.01 180.25 95.02 180.23 93.03 180.23 91.04 180.23 89.05 180.23 87.06 180.23 85.07 180.89 83.08 181.11 81.1 181.91 79.11 181.95 77.12 181.95 75.13 181.5 73.14 180.96001 71.15 180.89 69.16 181.5 67.17 182 65.18 182 63.19 182 61.2 181.52 59.21 181.11 57.22 181.52 55.23 182 53.24 182.41 51.25 182.82001 49.27 182.82001 47.28 182.41 45.29 182.23 43.3 182 41.31 182 39.32 182.23 37.33 182.82001 35.34 183.25999 33.35 183.7 31.36 184.14999 29.37 184.14999 27.38 184.14999 25.39 184.14999 23.4 182.41 21.41 182.41 19.42 182.25 17.44 182.25 15.45 182.25 13.46 182.25 11.47 182.25 9.48 182.25 7.49 182.14999 5.5 182 5.5 147.34"/>
      <polyline class="cls-4" points="5.5 147.34 7.49 148.31 9.48 148.63 11.47 149.14 13.46 149.14 15.45 149.14 17.44 149.14 19.42 149.05 21.41 148.63 23.4 148.36 25.39 147.78999 27.38 146.52 29.37 146 31.36 145.81 33.35 145.2 35.34 144.38 37.33 144.08 39.32 144.08 41.31 144.38 43.3 144.7 45.29 145.41 47.28 145.94 49.27 145.95 51.25 146.21001 53.24 146.25999 55.23 146.25999 57.22 146.25999 59.21 146.25999 61.2 146.21001 63.19 147.09 65.18 147.09 67.17 147.09 69.16 146.52 71.15 145.95 73.14 145.86 75.13 145.82001 77.12 145.95 79.11 145.95 81.1 145.95 83.08 145.95 85.07 145.86 87.06 145.95 89.05 146.21001 91.04 147.09 93.03 147.47 95.02 147.58 97.01 148.06 99 148.11 100.99 147.47 102.98 145.86 104.97 143.50999 106.96 141.64 108.95 139.2 110.94 136.89999 112.93 135.10001 114.92 133.00999 116.9 130.74001 118.89 128.31 120.88 125.06 122.87 122.22 124.86 116.07 126.85 111.79 128.84 109.25 130.83 107.15 132.82001 104.46 134.81 103.47 136.8 101.06 138.78999 98.3 140.78 96.12 142.77 92.96 144.75999 90.16 146.75 88.2 148.73 86.53 150.72 84.83 152.71001 81.1 154.7 77.51 156.69 73.87 158.67999 69.97 160.67 67.27 162.66 64.79 164.64999 62.51 166.64 59.64 168.63 58.32 170.62 57.27 172.61 55.33 174.60001 54.89 176.59 54.19 178.58 53.18 180.56 52.53 182.55 51.96 184.53999 51.53 186.53 51.42 188.52 51.37 190.50999 51.34 192.5 51.37"/>
      <polyline class="cls-4" points="192.5 78.02 190.50999 78.08 188.52 78.08 186.53 78.5 184.53999 78.5 182.55 78.11 180.56 78.5 178.58 79.59 176.59 80.84 174.60001 82.27 172.61 85.1 170.62 86.22 168.63 88.11 166.64 89.48 164.64999 90.71 162.66 92.74 160.67 96.64 158.67999 100.5 156.69 103.46 154.7 105.69 152.71001 108.14 150.72 111.17 148.73 115.67 146.75 122.5 144.75999 126.94 142.77 131.75 140.78 134.03 138.78999 136.89999 136.8 139.23 134.81 141.69 132.82001 144.7 130.83 148.77 128.84 153.96001 126.85 158.28999 124.86 161.17999 122.87 164.85001 120.88 166.59 118.89 168.42 116.9 169.96001 114.92 171.78 112.93 173.99001 110.94 175.28999 108.95 177.28 106.96 179.33 104.97 179.8 102.98 179.85001 100.99 180 99 180.25 97.01 180.25 95.02 180.23 93.03 180.23 91.04 180.23 89.05 180.23 87.06 180.23 85.07 180.89 83.08 181.11 81.1 181.91 79.11 181.95 77.12 181.95 75.13 181.5 73.14 180.96001 71.15 180.89 69.16 181.5 67.17 182 65.18 182 63.19 182 61.2 181.52 59.21 181.11 57.22 181.52 55.23 182 53.24 182.41 51.25 182.82001 49.27 182.82001 47.28 182.41 45.29 182.23 43.3 182 41.31 182 39.32 182.23 37.33 182.82001 35.34 183.25999 33.35 183.7 31.36 184.14999 29.37 184.14999 27.38 184.14999 25.39 184.14999 23.4 182.41 21.41 182.41 19.42 182.25 17.44 182.25 15.45 182.25 13.46 182.25 11.47 182.25 9.48 182.25 7.49 182.14999 5.5 182"/>
      <polygon class="cls-35" points="5.5 182 7.49 182.14999 9.48 182.25 11.47 182.25 13.46 182.25 15.45 182.25 17.44 182.25 19.42 182.25 21.41 182.41 23.4 182.41 25.39 184.14999 27.38 184.14999 29.37 184.14999 31.36 184.14999 33.35 183.7 35.34 183.25999 37.33 182.82001 39.32 182.23 41.31 182 43.3 182 45.29 182.23 47.28 182.41 49.27 182.82001 51.25 182.82001 53.24 182.41 55.23 182 57.22 181.52 59.21 181.11 61.2 181.52 63.19 182 65.18 182 67.17 182 69.16 181.5 71.15 180.89 73.14 180.96001 75.13 181.5 77.12 181.95 79.11 181.95 81.1 181.91 83.08 181.11 85.07 180.89 87.06 180.23 89.05 180.23 91.04 180.23 93.03 180.23 95.02 180.23 97.01 180.25 99 180.25 100.99 180 102.98 179.85001 104.97 179.8 106.96 179.33 108.95 177.28 110.94 175.28999 112.93 173.99001 114.92 171.78 116.9 169.96001 118.89 168.42 120.88 166.59 122.87 164.85001 124.86 161.17999 126.85 158.28999 128.84 153.96001 130.83 148.77 132.82001 144.7 134.81 141.69 136.8 139.23 138.78999 136.89999 140.78 134.03 142.77 131.75 144.75999 126.94 146.75 122.5 148.73 115.67 150.72 111.17 152.71001 108.14 154.7 105.69 156.69 103.46 158.67999 100.5 160.67 96.64 162.66 92.74 164.64999 90.71 166.64 89.48 168.63 88.11 170.62 86.22 172.61 85.1 174.60001 82.27 176.59 80.84 178.58 79.59 180.56 78.5 182.55 78.11 184.53999 78.5 186.53 78.5 188.52 78.08 190.50999 78.08 192.5 78.02 192.5 93.73 190.50999 93.91 188.52 94.35 186.53 95.02 184.53999 97.61 182.55 99.81 180.56 100.04 178.58 101.24 176.59 103.45 174.60001 104.01 172.61 104.43 170.62 105.14 168.63 106.27 166.64 108.01 164.64999 109.27 162.66 111.74 160.67 115.46 158.67999 122.55 156.69 130.16 154.7 136.82001 152.71001 138.09 150.72 141.17999 148.73 143.56 146.75 150.75999 144.75999 158.78999 142.77 164.56 140.78 168.81 138.78999 171.56 136.8 175.27 134.81 179.33 132.82001 185.42 130.83 189.11 128.84 192.92 126.85 195.32001 124.86 198.31 122.87 200.32001 120.88 201.88 118.89 204.7 116.9 205.60001 114.92 206.81 112.93 207.23 110.94 207.23 108.95 207.23 106.96 207.23 104.97 207.23 102.98 207.23 100.99 207.22 99 206.64999 97.01 205.63 95.02 205.60001 93.03 205.09 91.04 205.07001 89.05 204 87.06 203.5 85.07 202.92 83.08 201.92999 81.1 201.92999 79.11 201.09 77.12 200.38 75.13 200.38 73.14 200.37 71.15 200.37 69.16 200.87 67.17 200.89 65.18 201.87 63.19 200.89 61.2 200.87 59.21 200.37 57.22 200.37 55.23 200.37 53.24 200.37 51.25 200.87 49.27 200.89 47.28 201.92999 45.29 201.92999 43.3 201.92999 41.31 201.92999 39.32 201.92999 37.33 201.92999 35.34 201.92999 33.35 201.92999 31.36 201.92999 29.37 201.92999 27.38 201.92999 25.39 201.87 23.4 200.89 21.41 201.87 19.42 201.92999 17.44 201.92999 15.45 201.92999 13.46 201.92999 11.47 201.92999 9.48 201.92999 7.49 201.87 5.5 200.84 5.5 182"/>
      <polyline class="cls-4" points="5.5 182 7.49 182.14999 9.48 182.25 11.47 182.25 13.46 182.25 15.45 182.25 17.44 182.25 19.42 182.25 21.41 182.41 23.4 182.41 25.39 184.14999 27.38 184.14999 29.37 184.14999 31.36 184.14999 33.35 183.7 35.34 183.25999 37.33 182.82001 39.32 182.23 41.31 182 43.3 182 45.29 182.23 47.28 182.41 49.27 182.82001 51.25 182.82001 53.24 182.41 55.23 182 57.22 181.52 59.21 181.11 61.2 181.52 63.19 182 65.18 182 67.17 182 69.16 181.5 71.15 180.89 73.14 180.96001 75.13 181.5 77.12 181.95 79.11 181.95 81.1 181.91 83.08 181.11 85.07 180.89 87.06 180.23 89.05 180.23 91.04 180.23 93.03 180.23 95.02 180.23 97.01 180.25 99 180.25 100.99 180 102.98 179.85001 104.97 179.8 106.96 179.33 108.95 177.28 110.94 175.28999 112.93 173.99001 114.92 171.78 116.9 169.96001 118.89 168.42 120.88 166.59 122.87 164.85001 124.86 161.17999 126.85 158.28999 128.84 153.96001 130.83 148.77 132.82001 144.7 134.81 141.69 136.8 139.23 138.78999 136.89999 140.78 134.03 142.77 131.75 144.75999 126.94 146.75 122.5 148.73 115.67 150.72 111.17 152.71001 108.14 154.7 105.69 156.69 103.46 158.67999 100.5 160.67 96.64 162.66 92.74 164.64999 90.71 166.64 89.48 168.63 88.11 170.62 86.22 172.61 85.1 174.60001 82.27 176.59 80.84 178.58 79.59 180.56 78.5 182.55 78.11 184.53999 78.5 186.53 78.5 188.52 78.08 190.50999 78.08 192.5 78.02"/>
      <polyline class="cls-4" points="192.5 93.73 190.50999 93.91 188.52 94.35 186.53 95.02 184.53999 97.61 182.55 99.81 180.56 100.04 178.58 101.24 176.59 103.45 174.60001 104.01 172.61 104.43 170.62 105.14 168.63 106.27 166.64 108.01 164.64999 109.27 162.66 111.74 160.67 115.46 158.67999 122.55 156.69 130.16 154.7 136.82001 152.71001 138.09 150.72 141.17999 148.73 143.56 146.75 150.75999 144.75999 158.78999 142.77 164.56 140.78 168.81 138.78999 171.56 136.8 175.27 134.81 179.33 132.82001 185.42 130.83 189.11 128.84 192.92 126.85 195.32001 124.86 198.31 122.87 200.32001 120.88 201.88 118.89 204.7 116.9 205.60001 114.92 206.81 112.93 207.23 110.94 207.23 108.95 207.23 106.96 207.23 104.97 207.23 102.98 207.23 100.99 207.22 99 206.64999 97.01 205.63 95.02 205.60001 93.03 205.09 91.04 205.07001 89.05 204 87.06 203.5 85.07 202.92 83.08 201.92999 81.1 201.92999 79.11 201.09 77.12 200.38 75.13 200.38 73.14 200.37 71.15 200.37 69.16 200.87 67.17 200.89 65.18 201.87 63.19 200.89 61.2 200.87 59.21 200.37 57.22 200.37 55.23 200.37 53.24 200.37 51.25 200.87 49.27 200.89 47.28 201.92999 45.29 201.92999 43.3 201.92999 41.31 201.92999 39.32 201.92999 37.33 201.92999 35.34 201.92999 33.35 201.92999 31.36 201.92999 29.37 201.92999 27.38 201.92999 25.39 201.87 23.4 200.89 21.41 201.87 19.42 201.92999 17.44 201.92999 15.45 201.92999 13.46 201.92999 11.47 201.92999 9.48 201.92999 7.49 201.87 5.5 200.84"/>
      <polygon class="cls-28" points="5.5 200.84 7.49 201.87 9.48 201.92999 11.47 201.92999 13.46 201.92999 15.45 201.92999 17.44 201.92999 19.42 201.92999 21.41 201.87 23.4 200.89 25.39 201.87 27.38 201.92999 29.37 201.92999 31.36 201.92999 33.35 201.92999 35.34 201.92999 37.33 201.92999 39.32 201.92999 41.31 201.92999 43.3 201.92999 45.29 201.92999 47.28 201.92999 49.27 200.89 51.25 200.87 53.24 200.37 55.23 200.37 57.22 200.37 59.21 200.37 61.2 200.87 63.19 200.89 65.18 201.87 67.17 200.89 69.16 200.87 71.15 200.37 73.14 200.37 75.13 200.38 77.12 200.38 79.11 201.09 81.1 201.92999 83.08 201.92999 85.07 202.92 87.06 203.5 89.05 204 91.04 205.07001 93.03 205.09 95.02 205.60001 97.01 205.63 99 206.64999 100.99 207.22 102.98 207.23 104.97 207.23 106.96 207.23 108.95 207.23 110.94 207.23 112.93 207.23 114.92 206.81 116.9 205.60001 118.89 204.7 120.88 201.88 122.87 200.32001 124.86 198.31 126.85 195.32001 128.84 192.92 130.83 189.11 132.82001 185.42 134.81 179.33 136.8 175.27 138.78999 171.56 140.78 168.81 142.77 164.56 144.75999 158.78999 146.75 150.75999 148.73 143.56 150.72 141.17999 152.71001 138.09 154.7 136.82001 156.69 130.16 158.67999 122.55 160.67 115.46 162.66 111.74 164.64999 109.27 166.64 108.01 168.63 106.27 170.62 105.14 172.61 104.43 174.60001 104.01 176.59 103.45 178.58 101.24 180.56 100.04 182.55 99.81 184.53999 97.61 186.53 95.02 188.52 94.35 190.50999 93.91 192.5 93.73 192.5 249.12 190.50999 249.12 188.52 249.12 186.53 249.12 184.53999 249.12 182.55 249.12 180.56 249.12 178.58 249.12 176.59 249.12 174.60001 249.12 172.61 249.12 170.62 249.12 168.63 249.12 166.64 249.12 164.64999 249.12 162.66 249.12 160.67 249.12 158.67999 249.12 156.69 249.12 154.7 249.12 152.71001 249.12 150.72 249.12 148.73 249.12 146.75 249.12 144.75999 249.12 142.77 249.12 140.78 249.12 138.78999 249.12 136.8 249.12 134.81 249.12 132.82001 249.12 130.83 249.12 128.84 249.12 126.85 249.12 124.86 249.12 122.87 249.12 120.88 249.12 118.89 249.12 116.9 249.12 114.92 249.12 112.93 249.12 110.94 249.12 108.95 249.12 106.96 249.12 104.97 249.12 102.98 249.12 100.99 249.12 99 249.12 97.01 249.12 95.02 249.12 93.03 249.12 91.04 249.12 89.05 249.12 87.06 249.12 85.07 249.12 83.08 249.12 81.1 249.12 79.11 249.12 77.12 249.12 75.13 249.12 73.14 249.12 71.15 249.12 69.16 249.12 67.17 249.12 65.18 249.12 63.19 249.12 61.2 249.12 59.21 249.12 57.22 249.12 55.23 249.12 53.24 249.12 51.25 249.12 49.27 249.12 47.28 249.12 45.29 249.12 43.3 249.12 41.31 249.12 39.32 249.12 37.33 249.12 35.34 249.12 33.35 249.12 31.36 249.12 29.37 249.12 27.38 249.12 25.39 249.12 23.4 249.12 21.41 249.12 19.42 249.12 17.44 249.12 15.45 249.12 13.46 249.12 11.47 249.12 9.48 249.12 7.49 249.12 5.5 249.12 5.5 200.84"/>
      <polyline class="cls-4" points="5.5 200.84 7.49 201.87 9.48 201.92999 11.47 201.92999 13.46 201.92999 15.45 201.92999 17.44 201.92999 19.42 201.92999 21.41 201.87 23.4 200.89 25.39 201.87 27.38 201.92999 29.37 201.92999 31.36 201.92999 33.35 201.92999 35.34 201.92999 37.33 201.92999 39.32 201.92999 41.31 201.92999 43.3 201.92999 45.29 201.92999 47.28 201.92999 49.27 200.89 51.25 200.87 53.24 200.37 55.23 200.37 57.22 200.37 59.21 200.37 61.2 200.87 63.19 200.89 65.18 201.87 67.17 200.89 69.16 200.87 71.15 200.37 73.14 200.37 75.13 200.38 77.12 200.38 79.11 201.09 81.1 201.92999 83.08 201.92999 85.07 202.92 87.06 203.5 89.05 204 91.04 205.07001 93.03 205.09 95.02 205.60001 97.01 205.63 99 206.64999 100.99 207.22 102.98 207.23 104.97 207.23 106.96 207.23 108.95 207.23 110.94 207.23 112.93 207.23 114.92 206.81 116.9 205.60001 118.89 204.7 120.88 201.88 122.87 200.32001 124.86 198.31 126.85 195.32001 128.84 192.92 130.83 189.11 132.82001 185.42 134.81 179.33 136.8 175.27 138.78999 171.56 140.78 168.81 142.77 164.56 144.75999 158.78999 146.75 150.75999 148.73 143.56 150.72 141.17999 152.71001 138.09 154.7 136.82001 156.69 130.16 158.67999 122.55 160.67 115.46 162.66 111.74 164.64999 109.27 166.64 108.01 168.63 106.27 170.62 105.14 172.61 104.43 174.60001 104.01 176.59 103.45 178.58 101.24 180.56 100.04 182.55 99.81 184.53999 97.61 186.53 95.02 188.52 94.35 190.50999 93.91 192.5 93.73"/>
      <polygon class="cls-50" points="5.5 147.34 7.49 148.31 9.48 148.63 11.47 149.14 13.46 149.14 15.45 149.14 17.44 149.14 19.42 149.05 21.41 148.63 23.4 148.36 25.39 147.78999 27.38 146.52 29.37 146 31.36 145.81 33.35 145.2 35.34 144.38 37.33 144.08 39.32 144.08 41.31 144.38 43.3 144.7 45.29 145.41 47.28 145.94 49.27 145.95 51.25 146.21001 53.24 146.25999 55.23 146.25999 57.22 146.25999 59.21 146.25999 61.2 146.21001 63.19 147.09 65.18 147.09 67.17 147.09 69.16 146.52 71.15 145.95 73.14 145.86 75.13 145.82001 77.12 145.95 79.11 145.95 81.1 145.95 83.08 145.95 85.07 145.86 87.06 145.95 89.05 146.21001 91.04 147.09 93.03 147.47 95.02 147.58 97.01 148.06 99 148.11 100.99 147.47 102.98 145.86 104.97 143.50999 106.96 141.64 108.95 139.2 110.94 136.89999 112.93 135.10001 114.92 133.00999 116.9 130.74001 118.89 128.31 120.88 125.06 122.87 122.22 124.86 116.07 126.85 111.79 126.85 166.60001 128.84 166.60001 130.83 166.60001 130.83 107.15 132.82001 104.46 134.81 103.47 136.8 101.06 138.78999 98.3 140.78 96.12 142.77 92.96 144.75999 90.16 146.75 88.2 148.73 86.53 150.72 84.83 152.71001 81.1 154.7 77.51 156.69 73.87 158.67999 69.97 160.67 67.27 162.66 64.79 164.64999 62.51 166.64 59.64 168.63 58.32 170.62 57.27 172.61 55.33 174.60001 54.89 176.59 54.19 178.58 53.18 180.56 52.53 182.55 51.96 184.53999 51.53 186.53 51.42 188.52 51.37 190.50999 51.34 192.5 51.37 192.5 253.57001 190.50999 253.57001 188.52 253.57001 186.53 253.57001 184.53999 253.57001 182.55 253.57001 180.56 253.57001 178.58 253.57001 176.59 253.57001 174.60001 253.57001 172.61 253.57001 170.62 253.57001 168.63 253.57001 166.64 253.57001 164.64999 253.57001 162.66 253.57001 160.67 253.57001 158.67999 253.57001 156.69 253.57001 154.7 253.57001 152.71001 253.57001 150.72 253.57001 148.73 253.57001 146.75 253.57001 144.75999 253.57001 142.77 253.57001 140.78 253.57001 138.78999 253.57001 136.8 253.57001 134.81 253.57001 132.82001 253.57001 130.83 253.57001 130.83 253.57001 128.84 253.57001 126.85 253.57001 126.85 253.57001 124.86 253.57001 122.87 253.57001 120.88 253.57001 118.89 253.57001 116.9 253.57001 114.92 253.57001 112.93 253.57001 110.94 253.57001 108.95 253.57001 106.96 253.57001 104.97 253.57001 102.98 253.57001 100.99 253.57001 99 253.57001 97.01 253.57001 95.02 253.57001 93.03 253.57001 91.04 253.57001 89.05 253.57001 87.06 253.57001 85.07 253.57001 83.08 253.57001 81.1 253.57001 79.11 253.57001 77.12 253.57001 75.13 253.57001 73.14 253.57001 71.15 253.57001 69.16 253.57001 67.17 253.57001 65.18 253.57001 63.19 253.57001 61.2 253.57001 59.21 253.57001 57.22 253.57001 55.23 253.57001 53.24 253.57001 51.25 253.57001 49.27 253.57001 47.28 253.57001 45.29 253.57001 43.3 253.57001 41.31 253.57001 39.32 253.57001 37.33 253.57001 35.34 253.57001 33.35 253.57001 31.36 253.57001 29.37 253.57001 27.38 253.57001 25.39 253.57001 23.4 253.57001 21.41 253.57001 19.42 253.57001 17.44 253.57001 15.45 253.57001 13.46 253.57001 11.47 253.57001 9.48 253.57001 7.49 253.57001 5.5 253.57001 5.5 147.34"/>
      <polyline class="cls-4" points="5.5 147.34 7.49 148.31 9.48 148.63 11.47 149.14 13.46 149.14 15.45 149.14 17.44 149.14 19.42 149.05 21.41 148.63 23.4 148.36 25.39 147.78999 27.38 146.52 29.37 146 31.36 145.81 33.35 145.2 35.34 144.38 37.33 144.08 39.32 144.08 41.31 144.38 43.3 144.7 45.29 145.41 47.28 145.94 49.27 145.95 51.25 146.21001 53.24 146.25999 55.23 146.25999 57.22 146.25999 59.21 146.25999 61.2 146.21001 63.19 147.09 65.18 147.09 67.17 147.09 69.16 146.52 71.15 145.95 73.14 145.86 75.13 145.82001 77.12 145.95 79.11 145.95 81.1 145.95 83.08 145.95 85.07 145.86 87.06 145.95 89.05 146.21001 91.04 147.09 93.03 147.47 95.02 147.58 97.01 148.06 99 148.11 100.99 147.47 102.98 145.86 104.97 143.50999 106.96 141.64 108.95 139.2 110.94 136.89999 112.93 135.10001 114.92 133.00999 116.9 130.74001 118.89 128.31 120.88 125.06 122.87 122.22 124.86 116.07 126.85 111.79 126.85 166.60001 128.84 166.60001 130.83 166.60001 130.83 107.15 132.82001 104.46 134.81 103.47 136.8 101.06 138.78999 98.3 140.78 96.12 142.77 92.96 144.75999 90.16 146.75 88.2 148.73 86.53 150.72 84.83 152.71001 81.1 154.7 77.51 156.69 73.87 158.67999 69.97 160.67 67.27 162.66 64.79 164.64999 62.51 166.64 59.64 168.63 58.32 170.62 57.27 172.61 55.33 174.60001 54.89 176.59 54.19 178.58 53.18 180.56 52.53 182.55 51.96 184.53999 51.53 186.53 51.42 188.52 51.37 190.50999 51.34 192.5 51.37"/>
      <polyline class="cls-3" points="5.5 33.6734 7.49 39.97544 9.48 45.23711 11.47 48.77678 13.46 52.13708 15.45 54.99513 17.44 57.62596 19.42 58.21191 21.41 58.51087 23.4 57.91296 25.39 52.13708 27.38 43.10853 29.37 42.58236 31.36 45.77524 33.35 51.28804 35.34 56.44208 37.33 61.2015 39.32 65.51846 41.31 69.6441 43.3 72.92068 45.29 75.25255 47.28 77.97906 49.27 79.35427 51.25 80.40661 53.24 76.95065 55.23 63.96388 57.22 54.42112 59.21 46.58841 61.2 32.20252 63.19 31.71223 65.18 36.14877 67.17 42.58236 69.16 52.13708 71.15 64.89663 73.14 73.91322 75.13 80.7534 77.12 86.12269 79.11 89.44711 81.1 90.58316 83.08 91.33653 85.07 85.76394 87.06 72.92068 89.05 68.04167 91.04 65.51846 93.03 67.73076 95.02 81.10019 97.01 93.24986 99 108.3413 100.99 125.8483 102.98 142.07578 104.97 159.27189 106.19424 172.56462 108.95 201.38917 110.94 204.02 112.93 197.95712 114.92 187.37399"/>
      <polyline class="cls-2" points="5.5 33.6734 7.49 39.97544 9.48 45.23711 11.47 48.77678 13.46 52.13708 15.45 54.99513 17.44 57.62596 19.42 58.21191 21.41 58.51087 23.4 57.91296 25.39 52.13708 27.38 43.10853 29.37 42.58236 31.36 45.77524 33.35 51.28804 35.34 56.44208 37.33 61.2015 39.32 65.51846 41.31 69.6441 43.3 72.92068 45.29 75.25255 47.28 77.97906 49.27 79.35427 51.25 80.40661 53.24 76.95065 55.23 63.96388 57.22 54.42112 59.21 46.58841 61.2 32.20252 63.19 31.71223 65.18 36.14877 67.17 42.58236 69.16 52.13708 71.15 64.89663 73.14 73.91322 75.13 80.7534 77.12 86.12269 79.11 89.44711 81.1 90.58316 83.08 91.33653 85.07 85.76394 87.06 72.92068 89.05 68.04167 91.04 65.51846 93.03 67.73076 95.02 81.10019 97.01 93.24986 99 108.3413 100.99 125.8483 102.98 142.07578 104.97 159.27189 106.19424 172.86146 108.95 201.38917 110.94 204.02 112.93 197.95712 114.92 187.37399"/>
      <circle class="cls-9" cx="128.83999" cy="119.18" r="2.15"/>
      <circle class="cls-19" cx="128.775" cy="118.815" r="2.875"/>
      <line class="cls-1" x1="114.92" y1="253.57001" x2="114.92" y2="7.57001"/>
    </g>
  </g>
  <g class="cls-20">
    <g>
      <circle class="cls-17" cx="128.775" cy="256.015" r="2.875"/>
      <rect class="cls-18" x="102.98" y="253.515" width="5.97" height="5"/>
      <rect class="cls-35" x="108.95" y="253.515" width="5.97" height="5"/>
    </g>
  </g>
  <g class="cls-38">
    <g>
      <text class="cls-13" transform="translate(5.43018 16.33132)"><tspan class="cls-16" x="0" y="0">O</tspan><tspan class="cls-32" x="6.83984" y="0">b</tspan><tspan class="cls-15" x="12.52979" y="0">se</tspan><tspan class="cls-52" x="22.10938" y="0">r</tspan><tspan class="cls-45" x="26.09961" y="0">v</tspan><tspan class="cls-16" x="31.08936" y="0">ed</tspan></text>
      <text class="cls-13" transform="translate(5.43018 27.1321)"><tspan class="cls-48" x="0" y="0">s</tspan><tspan class="cls-16" x="4.21045" y="0">t</tspan><tspan class="cls-23" x="7.92041" y="0">r</tspan><tspan class="cls-53" x="11.6499" y="0">e</tspan><tspan class="cls-16" x="16.69971" y="0">amfl</tspan><tspan class="cls-45" x="36.56885" y="0">o</tspan><tspan class="cls-47" x="42.09863" y="0">w</tspan></text>
      <text class="cls-13" transform="translate(5.43012 109.0387)"><tspan class="cls-16" x="0" y="0">D</tspan><tspan x="6.3501" y="0">r</tspan><tspan class="cls-15" x="10.08008" y="0">ought </tspan><tspan class="cls-43" x="38.11914" y="0">c</tspan><tspan class="cls-49" x="42.74023" y="0">at</tspan><tspan x="51.38965" y="0">e</tspan><tspan class="cls-21" x="56.45996" y="0">g</tspan><tspan class="cls-47" x="61.60059" y="0">o</tspan><tspan class="cls-33" x="67.19141" y="0">r</tspan><tspan class="cls-15" x="71.17969" y="0">y</tspan></text>
      <text class="cls-14" transform="translate(29.37012 167.4114)"><tspan class="cls-16" x="0" y="0">Mode</tspan><tspan class="cls-51" x="23.08008" y="0">r</tspan><tspan class="cls-46" x="26.14014" y="0">at</tspan><tspan class="cls-15" x="34.15088" y="0">e</tspan></text>
      <text class="cls-14" transform="translate(29.37012 138.36823)"><tspan class="cls-16" x="0" y="0">N</tspan><tspan class="cls-53" x="6.45996" y="0">o</tspan><tspan class="cls-15" x="11.79004" y="0">t in d</tspan><tspan class="cls-39" x="32.55957" y="0">r</tspan><tspan class="cls-16" x="35.72998" y="0">ought</tspan></text>
      <text class="cls-11" transform="translate(5.43012 120.36847)"><tspan class="cls-44" x="0" y="0">pe</tspan><tspan x="9.38818" y="0">rc</tspan><tspan class="cls-44" x="16.29785" y="0">entile th</tspan><tspan x="46.83105" y="0">r</tspan><tspan class="cls-40" x="49.7627" y="0">eshold</tspan></text>
      <text class="cls-14" transform="translate(29.37012 194.77175)"><tspan class="cls-16" x="0" y="0">S</tspan><tspan class="cls-22" x="5.31006" y="0">e</tspan><tspan class="cls-42" x="10.36035" y="0">v</tspan><tspan class="cls-16" x="14.78955" y="0">e</tspan><tspan class="cls-39" x="19.71973" y="0">r</tspan><tspan class="cls-16" x="22.89014" y="0">e</tspan></text>
      <text class="cls-14" transform="translate(29.37012 216.37136)"><tspan class="cls-25" x="0" y="0">E</tspan><tspan class="cls-51" x="5.02002" y="0">x</tspan><tspan class="cls-15" x="8.97998" y="0">t</tspan><tspan x="12.19971" y="0">r</tspan><tspan class="cls-16" x="15.36963" y="0">eme</tspan></text>
      <text class="cls-14" transform="translate(70.63135 270.45144)"><tspan class="cls-16" x="0" y="0">O</tspan><tspan class="cls-31" x="6.62012" y="0">b</tspan><tspan class="cls-15" x="12.13037" y="0">se</tspan><tspan class="cls-34" x="21.21045" y="0">r</tspan><tspan class="cls-24" x="24.83936" y="0">v</tspan><tspan class="cls-47" x="29.26904" y="0">ed</tspan></text>
      <text class="cls-14" transform="translate(77.70117 281.25124)"><tspan class="cls-15" x="0" y="0">d</tspan><tspan class="cls-43" x="5.53906" y="0">r</tspan><tspan class="cls-15" x="8.70996" y="0">ought</tspan></text>
      <text class="cls-13" transform="translate(127.94043 270.4114)"><tspan class="cls-36" x="0" y="0">F</tspan><tspan class="cls-47" x="5.03906" y="0">o</tspan><tspan x="10.62988" y="0">r</tspan><tspan class="cls-47" x="14.35938" y="0">e</tspan><tspan x="19.53027" y="0">c</tspan><tspan class="cls-15" x="24.15039" y="0">a</tspan><tspan class="cls-48" x="29.41016" y="0">s</tspan><tspan class="cls-15" x="33.62012" y="0">t</tspan></text>
      <text class="cls-13" transform="translate(127.94043 281.2112)"><tspan class="cls-15" x="0" y="0">d</tspan><tspan class="cls-43" x="5.73926" y="0">r</tspan><tspan class="cls-15" x="9.46973" y="0">ought</tspan></text>
      <text class="cls-13" transform="translate(119.00232 16.33151)"><tspan class="cls-15" x="0" y="0">Issue d</tspan><tspan class="cls-36" x="30.40918" y="0">at</tspan><tspan class="cls-15" x="39.05957" y="0">e</tspan></text>
      <text class="cls-10" transform="translate(154.34961 122.83132)"><tspan x="0" y="0">Median</tspan></text>
      <text class="cls-13" transform="translate(140.49023 133.63113)"><tspan class="cls-15" x="0" y="0">p</tspan><tspan class="cls-43" x="5.73926" y="0">r</tspan><tspan class="cls-15" x="9.46973" y="0">edi</tspan><tspan class="cls-27" x="23.09961" y="0">c</tspan><tspan class="cls-47" x="27.71875" y="0">tion</tspan></text>
      <line class="cls-7" x1="149.99001" y1="119.47144" x2="140.49" y2="119.47144"/>
      <polyline class="cls-7" points="143.19 117.91144 140.49 119.47144 143.19 121.03144"/>
      <rect class="cls-29" x="2.94245" y="136.29676" width="20.95683" height="125.17986"/>
      <polyline class="cls-6" points="133.07 46.89144 136.04 46.89144 136.04 166.13143 133.07 166.13143"/>
      <text class="cls-12" transform="translate(139.5 165.67117)"><tspan x="0" y="0">90%</tspan></text>
      <text class="cls-14" transform="translate(139.5 176.47097)"><tspan class="cls-15" x="0" y="0">p</tspan><tspan class="cls-43" x="5.53906" y="0">r</tspan><tspan class="cls-15" x="8.70996" y="0">edi</tspan><tspan class="cls-27" x="21.56934" y="0">c</tspan><tspan class="cls-47" x="26.05859" y="0">tion</tspan></text>
      <text class="cls-14" transform="translate(139.5 187.27175)"><tspan class="cls-15" x="0" y="0">in</tspan><tspan class="cls-46" x="7.81055" y="0">t</tspan><tspan class="cls-47" x="10.9209" y="0">e</tspan><tspan class="cls-34" x="15.85156" y="0">r</tspan><tspan class="cls-26" x="19.48047" y="0">v</tspan><tspan class="cls-47" x="23.71973" y="0">al</tspan></text>
      <text class="cls-11" transform="translate(5.43035 150.77799)"><tspan x="0" y="0">20ᵗʰ</tspan></text>
      <text class="cls-11" transform="translate(5.43035 185.46799)"><tspan x="0" y="0">10ᵗʰ</tspan></text>
      <text class="cls-11" transform="translate(9.69987 203.248)"><tspan x="0" y="0">5ᵗʰ</tspan></text>
      <line class="cls-5" x1="20.89" y1="148.19015" x2="23.89" y2="148.19016"/>
      <line class="cls-5" x1="20.89" y1="182.88015" x2="23.89" y2="182.88016"/>
      <line class="cls-5" x1="20.89" y1="201.16015" x2="23.89" y2="201.16016"/>
    </g>
  </g>
</svg>