<?xml version="1.0" encoding="UTF-8"?>
<svg id="Layer_1" data-name="Layer 1" xmlns="http://www.w3.org/2000/svg" xmlns:xlink="http://www.w3.org/1999/xlink" viewBox="0 0 214.41 291.95">
  <defs>
    <clipPath id="clippath-4">
      <rect x="5.67" y="4.04" width="203.26" height="249.54" style="fill: none;"/>
    </clipPath>
    <clipPath id="clippath-6">
      <rect x="21.89" y="255.31" width="187.04" height="7.49" style="fill: none;"/>
    </clipPath>
  </defs>
  <rect x="16.41" width="198" height="288" style="fill: #fff;"/>
  <g style="clip-path: url(#clippath-4);">
    <g>
      <rect x="21.89" y="4.04" width="187.04" height="249.54" style="fill: #fff;"/>
      <rect x="143.36" y="46.6" width="3.78" height="120.01" style="fill: #fff; stroke: #949494; stroke-miterlimit: 10; stroke-width: .21px;"/>
      <g>
        <path d="M21.91,127.43s.01,0,.04-.02" style="fill: none; stroke: #262626; stroke-linecap: round; stroke-miterlimit: 10; stroke-width: .75px;"/>
        <path d="M24.89,127.18c1.33-.21,2.57-.68,4.03-.84,2.37-.27,4.28.97,6.55.97.49,0,.82.03,1.27.15.21.05.38,0,.58.03.59.1.84.24,1.47.14,1.17-.19,2.33-.47,3.48-.75.47-.11.98-.18,1.41-.42.39-.22.76-.46,1.17-.65,2.54-1.12,5.28-2.03,8.05-1.24,1.58.45,3.18.55,4.77.24.7-.14,1.43-.07,2.14-.21.46-.09.77-.21,1.25-.2.4,0,.6-.16.96-.2.75-.09,1.56.02,2.32,0,1-.01,1.8.74,2.73,1.02,1.27.37,2.54.79,3.87.95,2.84.34,5.91.37,8.76.1,2.1-.2,4.17-.7,6.27-.83,1.91-.11,3.68.41,5.56.37l1.99.13h5.96c3.11,0,6.01-1.43,9.11-1.53.68-.02,1.34.08,2-.08.53-.13,1.06-.22,1.6-.33.61-.12,1.11-.5,1.68-.74.43-.18.64-.57,1.04-.76.29-.14.67-.16.97-.23.68-.14,1.43-.24,2.11-.39.42-.09.88-.19,1.32-.2.4,0,.55-.12.9-.2.15-.03.33.02.49.01.27-.01.32-.09.58-.15.32-.08.64.02.97-.03.62-.11,1.25-.45,1.78-.73.52-.28.95-.69,1.46-.97.52-.29.81-.75,1.18-1.21.9-1.11,1.85-2.18,2.56-3.42,1.23-2.13,1.99-4.84,3-7.11.53-1.19,1.07-2.39,1.43-3.65.8-2.78,1.99-5.82,3.36-8.42.27-.5.56-1.01.99-1.38.38-.32.84-.53,1.27-.79,1.21-.75,1.69-1.99,2.66-2.96.33-.33.73-.62,1.08-.95.86-.82,1.74-1.63,2.64-2.4,1.7-1.47,3.52-2.85,5.54-3.86,1.82-2.21,2.69-4.31,4.2-6.64.68-1.05,1.62-1.92,2.2-3.03,1.48-2.85,2.32-4.68,4.72-6.97,2.46-2.33,5.26-4.34,7.27-7.1,1.98-2.72,2.44-7.33,3.54-10.54.24-.71.49-1.42.94-2.02.33-.44.76-.8,1.11-1.22.96-1.17,1.11-2.66,1.75-3.98.77-1.6,2.01-2.85,3.27-4.08.36-.35.74-.71,1.21-.89.43-.16.9-.16,1.34-.25.74-.16,1.39-.59,2.03-.99,2.62-1.67,6.55-4.61,9.78-4.6.89,0,1.85.09,2.7-.1.6-.13,1.22,0,1.78.2.62.23,1.09.16,1.76.14,1.37-.04,2.74-.03,4.12-.05,0,0,1.99-.03,1.99-.03h.45" style="fill: none; stroke: #262626; stroke-dasharray: .1 2.98; stroke-linecap: round; stroke-miterlimit: 10; stroke-width: .75px;"/>
        <line x1="208.86" y1="31.37" x2="208.91" y2="31.37" style="fill: none; stroke: #262626; stroke-linecap: round; stroke-miterlimit: 10; stroke-width: .75px;"/>
      </g>
      <polygon points="21.91 147.34 23.9 148.31 25.89 148.63 27.88 149.14 29.87 149.14 31.86 149.14 33.85 149.14 35.83 149.05 37.82 148.63 39.81 148.36 41.8 147.79 43.79 146.52 45.78 146 47.77 145.81 49.76 145.2 51.75 144.38 53.74 144.08 55.73 144.08 57.72 144.38 59.71 144.7 61.7 145.41 63.69 145.94 65.68 145.95 67.66 146.21 69.65 146.26 71.64 146.26 73.63 146.26 75.62 146.26 77.61 146.21 79.6 147.09 81.59 147.09 83.58 147.09 85.57 146.52 87.56 145.95 89.55 145.86 91.54 145.82 93.53 145.95 95.52 145.95 97.51 145.95 99.49 145.95 101.48 145.86 103.47 145.95 105.46 146.21 107.45 147.09 109.44 147.47 111.43 147.58 113.42 148.06 115.41 148.11 117.4 147.47 119.39 145.86 121.38 143.51 123.37 141.64 125.36 139.2 127.35 136.9 129.34 135.1 131.33 133.01 133.31 130.74 135.3 128.31 137.29 125.06 139.28 122.22 141.27 116.07 143.26 111.79 145.25 109.25 147.24 107.15 149.23 104.46 151.22 103.47 153.21 101.06 155.2 98.3 157.19 96.12 159.18 92.96 161.17 90.16 163.16 88.2 165.14 86.53 167.13 84.83 169.12 81.1 171.11 77.51 173.1 73.87 175.09 69.97 177.08 67.27 179.07 64.79 181.06 62.51 183.05 59.64 185.04 58.32 187.03 57.27 189.02 55.33 191.01 54.89 193 54.19 194.99 53.18 196.97 52.53 198.96 51.96 200.95 51.53 202.94 51.42 204.93 51.37 206.92 51.34 208.91 51.37 208.91 78.02 206.92 78.08 204.93 78.08 202.94 78.5 200.95 78.5 198.96 78.11 196.97 78.5 194.99 79.59 193 80.84 191.01 82.27 189.02 85.1 187.03 86.22 185.04 88.11 183.05 89.48 181.06 90.71 179.07 92.74 177.08 96.64 175.09 100.5 173.1 103.46 171.11 105.69 169.12 108.14 167.13 111.17 165.14 115.67 163.16 122.5 161.17 126.94 159.18 131.75 157.19 134.03 155.2 136.9 153.21 139.23 151.22 141.69 149.23 144.7 147.24 148.77 145.25 153.96 143.26 158.29 141.27 161.18 139.28 164.85 137.29 166.59 135.3 168.42 133.31 169.96 131.33 171.78 129.34 173.99 127.35 175.29 125.36 177.28 123.37 179.33 121.38 179.8 119.39 179.85 117.4 180 115.41 180.25 113.42 180.25 111.43 180.23 109.44 180.23 107.45 180.23 105.46 180.23 103.47 180.23 101.48 180.89 99.49 181.11 97.51 181.91 95.52 181.95 93.53 181.95 91.54 181.5 89.55 180.96 87.56 180.89 85.57 181.5 83.58 182 81.59 182 79.6 182 77.61 181.52 75.62 181.11 73.63 181.52 71.64 182 69.65 182.41 67.66 182.82 65.68 182.82 63.69 182.41 61.7 182.23 59.71 182 57.72 182 55.73 182.23 53.74 182.82 51.75 183.26 49.76 183.7 47.77 184.15 45.78 184.15 43.79 184.15 41.8 184.15 39.81 182.41 37.82 182.41 35.83 182.25 33.85 182.25 31.86 182.25 29.87 182.25 27.88 182.25 25.89 182.25 23.9 182.15 21.91 182 21.91 147.34" style="fill: #efe19c;"/>
      <polygon points="21.91 182 23.9 182.15 25.89 182.25 27.88 182.25 29.87 182.25 31.86 182.25 33.85 182.25 35.83 182.25 37.82 182.41 39.81 182.41 41.8 184.15 43.79 184.15 45.78 184.15 47.77 184.15 49.76 183.7 51.75 183.26 53.74 182.82 55.73 182.23 57.72 182 59.71 182 61.7 182.23 63.69 182.41 65.68 182.82 67.66 182.82 69.65 182.41 71.64 182 73.63 181.52 75.62 181.11 77.61 181.52 79.6 182 81.59 182 83.58 182 85.57 181.5 87.56 180.89 89.55 180.96 91.54 181.5 93.53 181.95 95.52 181.95 97.51 181.91 99.49 181.11 101.48 180.89 103.47 180.23 105.46 180.23 107.45 180.23 109.44 180.23 111.43 180.23 113.42 180.25 115.41 180.25 117.4 180 119.39 179.85 121.38 179.8 123.37 179.33 125.36 177.28 127.35 175.29 129.34 173.99 131.33 171.78 133.31 169.96 135.3 168.42 137.29 166.59 139.28 164.85 141.27 161.18 143.26 158.29 145.25 153.96 147.24 148.77 149.23 144.7 151.22 141.69 153.21 139.23 155.2 136.9 157.19 134.03 159.18 131.75 161.17 126.94 163.16 122.5 165.14 115.67 167.13 111.17 169.12 108.14 171.11 105.69 173.1 103.46 175.09 100.5 177.08 96.64 179.07 92.74 181.06 90.71 183.05 89.48 185.04 88.11 187.03 86.22 189.02 85.1 191.01 82.27 193 80.84 194.99 79.59 196.97 78.5 198.96 78.11 200.95 78.5 202.94 78.5 204.93 78.08 206.92 78.08 208.91 78.02 208.91 93.73 206.92 93.91 204.93 94.35 202.94 95.02 200.95 97.61 198.96 99.81 196.97 100.04 194.99 101.24 193 103.45 191.01 104.01 189.02 104.43 187.03 105.14 185.04 106.27 183.05 108.01 181.06 109.27 179.07 111.74 177.08 115.46 175.09 122.55 173.1 130.16 171.11 136.82 169.12 138.09 167.13 141.18 165.14 143.56 163.16 150.76 161.17 158.79 159.18 164.56 157.19 168.81 155.2 171.56 153.21 175.27 151.22 179.33 149.23 185.42 147.24 189.11 145.25 192.92 143.26 195.32 141.27 198.31 139.28 200.32 137.29 201.88 135.3 204.7 133.31 205.6 131.33 206.81 129.34 207.23 127.35 207.23 125.36 207.23 123.37 207.23 121.38 207.23 119.39 207.23 117.4 207.22 115.41 206.65 113.42 205.63 111.43 205.6 109.44 205.09 107.45 205.07 105.46 204 103.47 203.5 101.48 202.92 99.49 201.93 97.51 201.93 95.52 201.09 93.53 200.38 91.54 200.38 89.55 200.37 87.56 200.37 85.57 200.87 83.58 200.89 81.59 201.87 79.6 200.89 77.61 200.87 75.62 200.37 73.63 200.37 71.64 200.37 69.65 200.37 67.66 200.87 65.68 200.89 63.69 201.93 61.7 201.93 59.71 201.93 57.72 201.93 55.73 201.93 53.74 201.93 51.75 201.93 49.76 201.93 47.77 201.93 45.78 201.93 43.79 201.93 41.8 201.87 39.81 200.89 37.82 201.87 35.83 201.93 33.85 201.93 31.86 201.93 29.87 201.93 27.88 201.93 25.89 201.93 23.9 201.87 21.91 200.84 21.91 182" style="fill: #b77040;"/>
      <polygon points="21.91 200.84 23.9 201.87 25.89 201.93 27.88 201.93 29.87 201.93 31.86 201.93 33.85 201.93 35.83 201.93 37.82 201.87 39.81 200.89 41.8 201.87 43.79 201.93 45.78 201.93 47.77 201.93 49.76 201.93 51.75 201.93 53.74 201.93 55.73 201.93 57.72 201.93 59.71 201.93 61.7 201.93 63.69 201.93 65.68 200.89 67.66 200.87 69.65 200.37 71.64 200.37 73.63 200.37 75.62 200.37 77.61 200.87 79.6 200.89 81.59 201.87 83.58 200.89 85.57 200.87 87.56 200.37 89.55 200.37 91.54 200.38 93.53 200.38 95.52 201.09 97.51 201.93 99.49 201.93 101.48 202.92 103.47 203.5 105.46 204 107.45 205.07 109.44 205.09 111.43 205.6 113.42 205.63 115.41 206.65 117.4 207.22 119.39 207.23 121.38 207.23 123.37 207.23 125.36 207.23 127.35 207.23 129.34 207.23 131.33 206.81 133.31 205.6 135.3 204.7 137.29 201.88 139.28 200.32 141.27 198.31 143.26 195.32 145.25 192.92 147.24 189.11 149.23 185.42 151.22 179.33 153.21 175.27 155.2 171.56 157.19 168.81 159.18 164.56 161.17 158.79 163.16 150.76 165.14 143.56 167.13 141.18 169.12 138.09 171.11 136.82 173.1 130.16 175.09 122.55 177.08 115.46 179.07 111.74 181.06 109.27 183.05 108.01 185.04 106.27 187.03 105.14 189.02 104.43 191.01 104.01 193 103.45 194.99 101.24 196.97 100.04 198.96 99.81 200.95 97.61 202.94 95.02 204.93 94.35 206.92 93.91 208.91 93.73 208.91 249.12 206.92 249.12 204.93 249.12 202.94 249.12 200.95 249.12 198.96 249.12 196.97 249.12 194.99 249.12 193 249.12 191.01 249.12 189.02 249.12 187.03 249.12 185.04 249.12 183.05 249.12 181.06 249.12 179.07 249.12 177.08 249.12 175.09 249.12 173.1 249.12 171.11 249.12 169.12 249.12 167.13 249.12 165.14 249.12 163.16 249.12 161.17 249.12 159.18 249.12 157.19 249.12 155.2 249.12 153.21 249.12 151.22 249.12 149.23 249.12 147.24 249.12 145.25 249.12 143.26 249.12 141.27 249.12 139.28 249.12 137.29 249.12 135.3 249.12 133.31 249.12 131.33 249.12 129.34 249.12 127.35 249.12 125.36 249.12 123.37 249.12 121.38 249.12 119.39 249.12 117.4 249.12 115.41 249.12 113.42 249.12 111.43 249.12 109.44 249.12 107.45 249.12 105.46 249.12 103.47 249.12 101.48 249.12 99.49 249.12 97.51 249.12 95.52 249.12 93.53 249.12 91.54 249.12 89.55 249.12 87.56 249.12 85.57 249.12 83.58 249.12 81.59 249.12 79.6 249.12 77.61 249.12 75.62 249.12 73.63 249.12 71.64 249.12 69.65 249.12 67.66 249.12 65.68 249.12 63.69 249.12 61.7 249.12 59.71 249.12 57.72 249.12 55.73 249.12 53.74 249.12 51.75 249.12 49.76 249.12 47.77 249.12 45.78 249.12 43.79 249.12 41.8 249.12 39.81 249.12 37.82 249.12 35.83 249.12 33.85 249.12 31.86 249.12 29.87 249.12 27.88 249.12 25.89 249.12 23.9 249.12 21.91 249.12 21.91 200.84" style="fill: #7a0000;"/>
      <polygon points="21.91 147.34 23.9 148.31 25.89 148.63 27.88 149.14 29.87 149.14 31.86 149.14 33.85 149.14 35.83 149.05 37.82 148.63 39.81 148.36 41.8 147.79 43.79 146.52 45.78 146 47.77 145.81 49.76 145.2 51.75 144.38 53.74 144.08 55.73 144.08 57.72 144.38 59.71 144.7 61.7 145.41 63.69 145.94 65.68 145.95 67.66 146.21 69.65 146.26 71.64 146.26 73.63 146.26 75.62 146.26 77.61 146.21 79.6 147.09 81.59 147.09 83.58 147.09 85.57 146.52 87.56 145.95 89.55 145.86 91.54 145.82 93.53 145.95 95.52 145.95 97.51 145.95 99.49 145.95 101.48 145.86 103.47 145.95 105.46 146.21 107.45 147.09 109.44 147.47 111.43 147.58 113.42 148.06 115.41 148.11 117.4 147.47 119.39 145.86 121.38 143.51 123.37 141.64 125.36 139.2 127.35 136.9 129.34 135.1 131.33 133.01 133.31 130.74 135.3 128.31 137.29 125.06 139.28 122.22 141.27 116.07 143.26 111.79 143.26 166.6 145.25 166.6 147.24 166.6 147.24 107.15 149.23 104.46 151.22 103.47 153.21 101.06 155.2 98.3 157.19 96.12 159.18 92.96 161.17 90.16 163.16 88.2 165.14 86.53 167.13 84.83 169.12 81.1 171.11 77.51 173.1 73.87 175.09 69.97 177.08 67.27 179.07 64.79 181.06 62.51 183.05 59.64 185.04 58.32 187.03 57.27 189.02 55.33 191.01 54.89 193 54.19 194.99 53.18 196.97 52.53 198.96 51.96 200.95 51.53 202.94 51.42 204.93 51.37 206.92 51.34 208.91 51.37 208.91 253.57 206.92 253.57 204.93 253.57 202.94 253.57 200.95 253.57 198.96 253.57 196.97 253.57 194.99 253.57 193 253.57 191.01 253.57 189.02 253.57 187.03 253.57 185.04 253.57 183.05 253.57 181.06 253.57 179.07 253.57 177.08 253.57 175.09 253.57 173.1 253.57 171.11 253.57 169.12 253.57 167.13 253.57 165.14 253.57 163.16 253.57 161.17 253.57 159.18 253.57 157.19 253.57 155.2 253.57 153.21 253.57 151.22 253.57 149.23 253.57 147.24 253.57 147.24 253.57 145.25 253.57 143.26 253.57 143.26 253.57 141.27 253.57 139.28 253.57 137.29 253.57 135.3 253.57 133.31 253.57 131.33 253.57 129.34 253.57 127.35 253.57 125.36 253.57 123.37 253.57 121.38 253.57 119.39 253.57 117.4 253.57 115.41 253.57 113.42 253.57 111.43 253.57 109.44 253.57 107.45 253.57 105.46 253.57 103.47 253.57 101.48 253.57 99.49 253.57 97.51 253.57 95.52 253.57 93.53 253.57 91.54 253.57 89.55 253.57 87.56 253.57 85.57 253.57 83.58 253.57 81.59 253.57 79.6 253.57 77.61 253.57 75.62 253.57 73.63 253.57 71.64 253.57 69.65 253.57 67.66 253.57 65.68 253.57 63.69 253.57 61.7 253.57 59.71 253.57 57.72 253.57 55.73 253.57 53.74 253.57 51.75 253.57 49.76 253.57 47.77 253.57 45.78 253.57 43.79 253.57 41.8 253.57 39.81 253.57 37.82 253.57 35.83 253.57 33.85 253.57 31.86 253.57 29.87 253.57 27.88 253.57 25.89 253.57 23.9 253.57 21.91 253.57 21.91 147.34" style="fill: rgba(255, 255, 255, .75);"/>
      <path d="M21.91,33.67l1.99,6.3,1.99,5.26,1.99,3.54,1.99,3.36,1.99,2.86,1.99,2.63,1.98.59,1.99.3,1.99-.6,1.99-5.78,1.99-9.03,1.99-.53,1.99,3.19,1.99,5.51,1.99,5.15,1.99,4.76,1.99,4.32,1.99,4.13,1.99,3.28,1.99,2.33,1.99,2.73,1.99,1.38,1.98,1.05,1.99-3.46,1.99-12.99,1.99-9.54,1.99-7.83,1.99-14.39,1.99-.49,1.99,4.44,1.99,6.43,1.99,9.55,1.99,12.76,1.99,9.02,1.99,6.84,1.99,5.37,1.99,3.32,1.99,1.14,1.98.75,1.99-5.57,1.99-12.84,1.99-4.88,1.99-2.52,1.99,2.21,1.99,13.37,1.99,12.15,1.99,15.09,1.99,17.51,1.99,16.23,1.99,17.2s1.22,13.29,1.22,13.29c.81,8.52,1.63,17.04,2.44,25.56.14,1.42.02,2.99.55,4.34.3.76.78.64,1.34.38.63-.29.74-.57,1.11-1.12.11-.17.13-.31.24-.62.09-.24.26-.86.38-1.08s.24-.67.33-.9c.23-.63.27-1.23.42-1.91.05-.24.25-1.08.33-1.31.08-.24.22-1.21.27-1.46.26-1.48.16-.88.38-2.02l.95-5.05" style="fill: none; stroke: #fff; stroke-linejoin: round; stroke-width: 2.92px;"/>
      <path d="M3.28,48.06c.36,0,.66-.13,1.03-.13.33,0,.57,0,.85-.11s.57-.13.83-.27c.33-.18.7-.31,1.03-.51.45-.28.83-.71,1.02-1.22.12-.32.09-.58.15-.9s.12-.51.12-.84.1-.58.13-.9c.04-.38.1-.8.19-1.17.16-.63.13-1.3.29-1.92.04-.16,0-.29.02-.45s.09-.31.13-.47c.13-.45.15-.92.24-1.38.12-.61.27-1.18.27-1.81,0-.68.12-1.35.27-1.99.08-.37.14-.74.27-1.1.3-.81,1.34-1.68,2.2-1.43,1.38.4,3.17.05,4.3,1.05.69.61,1.25,1.43,1.71,2.22,2.16,3.72,4.86,6.98,6.68,10.89,1.76,3.78,3.62,6.64,6.04,9.97.9,1.24,2.07,1.32,3.37,1.87.41.17.73.48,1.13.66,1.34.62,2.92.22,4.26-.19,0,0,1.99-5.78,1.99-5.78l1.49-6.75c.12-.55.24-1.1.37-1.66.04-.2.06-.38.06-.58,0-.38.26-.66.56-.86.02-.02.05-.03.07-.04.28-.17.75-.32,1.03-.11.12.09.18.23.27.34.11.14.23.28.34.43.22.3.42.6.62.9.12.18.26.36.38.55.07.11.15.21.22.32.04.07.06.16.11.22.28.42.57.88.82,1.33.14.24.26.51.37.77.08.19.21.34.29.53.09.23.16.44.27.66.34.68.7,1.33,1.1,1.98.1.17.21.34.3.51.08.15.14.31.23.47s.19.28.28.42c.36.6.75,1.24,1.22,1.77.17.19.34.46.48.68.37.59.81,1.18,1.28,1.7.23.24.41.52.64.76.15.16.3.3.45.46.11.11.17.22.29.32s.21.19.3.31c.19.24.4.5.64.69.22.18.4.42.64.59.28.19.55.45.8.69.21.2.43.37.63.59.21.23.44.4.68.6.56.45,1.03,1.01,1.6,1.44.27.21.57.37.86.56.41.27.88.45,1.32.67.38.19.77.29,1.16.46.58.24,1.17.44,1.76.66.91.33,1.88.53,2.84.53.16,0,.36.04.52-.01s.3-.16.44-.23c.25-.13.4-.26.59-.46.15-.16.23-.3.33-.47.05-.09.09-.16.13-.26.06-.18.14-.34.2-.51.48-1.51.52-3.09,1.29-4.5,1.99-3.65,2.58-7.93,3.6-11.97.26-1.89.52-3.79.79-5.68l.63-4.54.27-1.95c.07-.48.1-.97.2-1.44.04-.18.08-.38.15-.55.05-.13.09-.24.13-.37.1-.36.29-.67.63-.83.29-.13.45-.04.71.12.48.3.63.69.85,1.2l1.61,3.6,1.99,6.43,1.99,9.55,1.99,12.76,1.99,9.02,1.99,6.84s1.99,5.37,1.99,5.37l1.66,2.78c.16.27.23.49.49.59.21.08.39.13.59.25.26.15.55.28.83.4.45.2.99.19,1.46-.02.44-.19.83-.36,1.1-.76.13-.18.17-.44.29-.62.07-.11.19-.17.27-.27.03-.04.06-.13.09-.16.06-.06.15-.08.21-.14.11-.11.13-.16.19-.31.27-.69.5-1.41.75-2.11l1.99-12.84s1.99-4.88,1.99-4.88l.75-.95c.27-.34.51-.71.82-1.01.22-.22.48-.37.76-.51.42-.21.8-.14,1.1.21.1.11.2.26.27.38.09.16.09.35.16.52.18.43.22.91.19,1.37-.02.33.09.69.14,1.02l.25,1.67,1.23,8.29.31,2.07,1.99,12.15,1.99,15.09,1.99,17.51,1.99,16.23,1.99,17.2s1.22,13.59,1.22,13.59c.82,8.47,1.64,16.93,2.45,25.4.09.92.19,1.84.27,2.76.06.68.13,1.97,1.04,2.06.24.02.4-.1.58-.24.24-.19.53-.35.74-.57s.34-.51.48-.77c.1-.19.13-.4.22-.61.19-.45.28-.85.41-1.32.04-.13.16-.31.2-.44.53-1.75.79-3.54,1.13-5.34l1.21-6.41" style="fill: none; stroke: #1a1a1a; stroke-linejoin: round; stroke-width: .93px;"/>
      <circle cx="145.25" cy="119.18" r="2.15" style="fill: #fff; stroke: #666; stroke-linecap: round; stroke-linejoin: round; stroke-width: .35px;"/>
      <circle cx="145.25" cy="118.82" r="3" style="fill: #efe19c; stroke: #636363; stroke-miterlimit: 10; stroke-width: .6px;"/>
      <line x1="131.33" y1="249.12" x2="131.33" y2="7.57" style="fill: none; stroke: #6b6b6b; stroke-linejoin: round; stroke-width: .25px;"/>
    </g>
  </g>
  <g style="clip-path: url(#clippath-6);">
    <g>
      <circle cx="145.19" cy="259.02" r="3" style="fill: #efe19c; stroke: #636363; stroke-width: .6px;"/>
      <rect x="119.39" y="256.51" width="5.97" height="5" style="fill: #efe19c;"/>
      <rect x="125.36" y="256.51" width="5.97" height="5" style="fill: #b77040;"/>
    </g>
  </g>
  <g>
    <text transform="translate(4.84 15.33)" style="fill: #333; font-family: SourceSans3-SemiBold, &apos;Source Sans 3&apos;; font-size: 10px; font-variation-settings: &apos;wght&apos; 600; font-weight: 600; isolation: isolate;"><tspan x="0" y="0" style="letter-spacing: .01em;">O</tspan><tspan x="6.84" y="0" style="letter-spacing: 0em;">b</tspan><tspan x="12.53" y="0" style="letter-spacing: 0em;">se</tspan><tspan x="22.11" y="0" style="letter-spacing: .03em;">r</tspan><tspan x="26.1" y="0" style="letter-spacing: 0em;">v</tspan><tspan x="31.09" y="0" style="letter-spacing: .01em;">ed</tspan></text>
    <text transform="translate(4.84 26.13)" style="fill: #333; font-family: SourceSans3-SemiBold, &apos;Source Sans 3&apos;; font-size: 10px; font-variation-settings: &apos;wght&apos; 600; font-weight: 600; isolation: isolate;"><tspan x="0" y="0" style="letter-spacing: 0em;">s</tspan><tspan x="4.21" y="0" style="letter-spacing: .01em;">t</tspan><tspan x="7.92" y="0" style="letter-spacing: 0em;">r</tspan><tspan x="11.65" y="0" style="letter-spacing: 0em;">e</tspan><tspan x="16.7" y="0" style="letter-spacing: .01em;">amfl</tspan><tspan x="36.57" y="0" style="letter-spacing: 0em;">o</tspan><tspan x="42.1" y="0" style="letter-spacing: .01em;">w</tspan></text>
    <text transform="translate(4.84 87.04)" style="fill: #333; font-family: SourceSans3-SemiBold, &apos;Source Sans 3&apos;; font-size: 10px; font-variation-settings: &apos;wght&apos; 600; font-weight: 600; isolation: isolate;"><tspan x="0" y="0" style="letter-spacing: .01em;">d</tspan><tspan x="5.74" y="0">r</tspan><tspan x="9.47" y="0" style="letter-spacing: 0em;">ought </tspan><tspan x="37.51" y="0" style="letter-spacing: 0em;">c</tspan><tspan x="42.13" y="0" style="letter-spacing: 0em;">at</tspan><tspan x="50.78" y="0">e</tspan><tspan x="55.85" y="0" style="letter-spacing: 0em;">g</tspan><tspan x="60.99" y="0" style="letter-spacing: .01em;">o</tspan><tspan x="66.58" y="0" style="letter-spacing: .03em;">r</tspan><tspan x="70.57" y="0" style="letter-spacing: 0em;">y</tspan></text>
    <text transform="translate(4.84 75.86)" style="fill: #333; font-family: SourceSans3-SemiBold, &apos;Source Sans 3&apos;; font-size: 10px; font-variation-settings: &apos;wght&apos; 600; font-weight: 600; isolation: isolate;"><tspan x="0" y="0" style="letter-spacing: -.02em;">S</tspan><tspan x="5.29" y="0" style="letter-spacing: .01em;">t</tspan><tspan x="9" y="0" style="letter-spacing: 0em;">r</tspan><tspan x="12.73" y="0" style="letter-spacing: 0em;">e</tspan><tspan x="17.78" y="0" style="letter-spacing: .01em;">amfl</tspan><tspan x="37.65" y="0" style="letter-spacing: 0em;">o</tspan><tspan x="43.18" y="0" style="letter-spacing: 0em;">w</tspan></text>
    <text transform="translate(28.78 167.41)" style="fill: #333; font-family: SourceSans3-Light, &apos;Source Sans 3&apos;; font-size: 10px; font-variation-settings: &apos;wght&apos; 300; font-weight: 300; isolation: isolate;"><tspan x="0" y="0" style="letter-spacing: .01em;">Mode</tspan><tspan x="23.08" y="0" style="letter-spacing: -.01em;">r</tspan><tspan x="26.14" y="0" style="letter-spacing: 0em;">at</tspan><tspan x="34.15" y="0" style="letter-spacing: 0em;">e d</tspan><tspan x="46.72" y="0">r</tspan><tspan x="49.89" y="0" style="letter-spacing: .01em;">ought</tspan></text>
    <text transform="translate(28.78 139.37)" style="fill: #333; font-family: SourceSans3-Light, &apos;Source Sans 3&apos;; font-size: 10px; font-variation-settings: &apos;wght&apos; 300; font-weight: 300; isolation: isolate;"><tspan x="0" y="0" style="letter-spacing: .01em;">Abnormally d</tspan><tspan x="55.29" y="0" style="letter-spacing: .05em;">r</tspan><tspan x="58.92" y="0" style="letter-spacing: .01em;">y</tspan></text>
    <text transform="translate(28.78 117.46)" style="fill: #333; font-family: SourceSans3-Light, &apos;Source Sans 3&apos;; font-size: 10px; font-variation-settings: &apos;wght&apos; 300; font-weight: 300; isolation: isolate;"><tspan x="0" y="0" style="letter-spacing: .01em;">Normal </tspan><tspan x="32.98" y="0" style="letter-spacing: 0em;">c</tspan><tspan x="37.4" y="0" style="letter-spacing: .01em;">onditions</tspan></text>
    <text transform="translate(5.84 98.37)" style="fill: #333; font-family: SourceSans3Italic-LightItalic, &apos;Source Sans 3&apos;; font-size: 9.25px; font-style: italic; font-variation-settings: &apos;wght&apos; 300; font-weight: 300; isolation: isolate;"><tspan x="0" y="0" style="letter-spacing: 0em;">pe</tspan><tspan x="9.39" y="0">rc</tspan><tspan x="16.3" y="0" style="letter-spacing: 0em;">entile th</tspan><tspan x="46.83" y="0">r</tspan><tspan x="49.76" y="0" style="letter-spacing: .01em;">eshold</tspan></text>
    <text transform="translate(28.78 194.77)" style="fill: #333; font-family: SourceSans3-Light, &apos;Source Sans 3&apos;; font-size: 10px; font-variation-settings: &apos;wght&apos; 300; font-weight: 300; isolation: isolate;"><tspan x="0" y="0" style="letter-spacing: .01em;">S</tspan><tspan x="5.31" y="0" style="letter-spacing: .02em;">e</tspan><tspan x="10.36" y="0" style="letter-spacing: 0em;">v</tspan><tspan x="14.79" y="0" style="letter-spacing: .01em;">e</tspan><tspan x="19.72" y="0" style="letter-spacing: 0em;">r</tspan><tspan x="22.89" y="0" style="letter-spacing: .01em;">e d</tspan><tspan x="35.46" y="0">r</tspan><tspan x="38.63" y="0" style="letter-spacing: .01em;">ought</tspan></text>
    <text transform="translate(28.78 216.37)" style="fill: #333; font-family: SourceSans3-Light, &apos;Source Sans 3&apos;; font-size: 10px; font-variation-settings: &apos;wght&apos; 300; font-weight: 300; isolation: isolate;"><tspan x="0" y="0" style="letter-spacing: -.01em;">E</tspan><tspan x="5.02" y="0" style="letter-spacing: -.01em;">x</tspan><tspan x="8.98" y="0" style="letter-spacing: 0em;">t</tspan><tspan x="12.2" y="0">r</tspan><tspan x="15.37" y="0" style="letter-spacing: .01em;">eme d</tspan><tspan x="41.09" y="0" style="letter-spacing: 0em;">r</tspan><tspan x="44.26" y="0" style="letter-spacing: 0em;">ought</tspan></text>
    <text transform="translate(87.04 273.45)" style="fill: #333; font-family: SourceSans3-Light, &apos;Source Sans 3&apos;; font-size: 10px; font-variation-settings: &apos;wght&apos; 300; font-weight: 300; isolation: isolate;"><tspan x="0" y="0" style="letter-spacing: .01em;">O</tspan><tspan x="6.62" y="0" style="letter-spacing: 0em;">b</tspan><tspan x="12.13" y="0" style="letter-spacing: 0em;">se</tspan><tspan x="21.21" y="0" style="letter-spacing: .05em;">r</tspan><tspan x="24.84" y="0" style="letter-spacing: 0em;">v</tspan><tspan x="29.27" y="0" style="letter-spacing: .01em;">ed</tspan></text>
    <text transform="translate(94.11 284.25)" style="fill: #333; font-family: SourceSans3-Light, &apos;Source Sans 3&apos;; font-size: 10px; font-variation-settings: &apos;wght&apos; 300; font-weight: 300; isolation: isolate;"><tspan x="0" y="0" style="letter-spacing: 0em;">d</tspan><tspan x="5.54" y="0" style="letter-spacing: 0em;">r</tspan><tspan x="8.71" y="0" style="letter-spacing: 0em;">ought</tspan></text>
    <text transform="translate(144.35 273.41)" style="fill: #333; font-family: SourceSans3-SemiBold, &apos;Source Sans 3&apos;; font-size: 10px; font-variation-settings: &apos;wght&apos; 600; font-weight: 600; isolation: isolate;"><tspan x="0" y="0" style="letter-spacing: 0em;">F</tspan><tspan x="5.04" y="0" style="letter-spacing: .01em;">o</tspan><tspan x="10.63" y="0">r</tspan><tspan x="14.36" y="0" style="letter-spacing: .01em;">e</tspan><tspan x="19.53" y="0">c</tspan><tspan x="24.15" y="0" style="letter-spacing: 0em;">a</tspan><tspan x="29.41" y="0" style="letter-spacing: 0em;">s</tspan><tspan x="33.62" y="0" style="letter-spacing: 0em;">t</tspan></text>
    <text transform="translate(144.35 284.21)" style="fill: #333; font-family: SourceSans3-SemiBold, &apos;Source Sans 3&apos;; font-size: 10px; font-variation-settings: &apos;wght&apos; 600; font-weight: 600; isolation: isolate;"><tspan x="0" y="0" style="letter-spacing: 0em;">d</tspan><tspan x="5.74" y="0" style="letter-spacing: 0em;">r</tspan><tspan x="9.47" y="0" style="letter-spacing: 0em;">ought</tspan></text>
    <text transform="translate(134.41 15.33)" style="fill: #333; font-family: SourceSans3-SemiBold, &apos;Source Sans 3&apos;; font-size: 10px; font-variation-settings: &apos;wght&apos; 600; font-weight: 600; isolation: isolate;"><tspan x="0" y="0" style="letter-spacing: 0em;">Issue d</tspan><tspan x="30.41" y="0" style="letter-spacing: 0em;">at</tspan><tspan x="39.06" y="0" style="letter-spacing: 0em;">e</tspan></text>
    <text transform="translate(169.76 122.83)" style="fill: #333; font-family: SourceSans3-SemiBold, &apos;Source Sans 3&apos;; font-size: 10px; font-variation-settings: &apos;wght&apos; 600; font-weight: 600; isolation: isolate; letter-spacing: 0em;"><tspan x="0" y="0">Median</tspan></text>
    <text transform="translate(156.9 133.63)" style="fill: #333; font-family: SourceSans3-SemiBold, &apos;Source Sans 3&apos;; font-size: 10px; font-variation-settings: &apos;wght&apos; 600; font-weight: 600; isolation: isolate;"><tspan x="0" y="0" style="letter-spacing: 0em;">p</tspan><tspan x="5.74" y="0" style="letter-spacing: 0em;">r</tspan><tspan x="9.47" y="0" style="letter-spacing: 0em;">edi</tspan><tspan x="23.1" y="0" style="letter-spacing: 0em;">c</tspan><tspan x="27.72" y="0" style="letter-spacing: .01em;">tion</tspan></text>
    <line x1="166.4" y1="119.47" x2="156.9" y2="119.47" style="fill: none; stroke: #333; stroke-linejoin: round; stroke-width: .75px;"/>
    <polyline points="159.6 117.91 156.9 119.47 159.6 121.03" style="fill: none; stroke: #333; stroke-linejoin: round; stroke-width: .75px;"/>
    <rect x="2.35" y="119.23" width="20.96" height="142.25" style="fill: #fff;"/>
    <polyline points="149.48 46.89 152.45 46.89 152.45 166.13 149.48 166.13" style="fill: none; stroke: #333; stroke-linejoin: round; stroke-width: .43px;"/>
    <text transform="translate(155.91 165.67)" style="fill: #333; font-family: SourceSans3-Light, &apos;Source Sans 3&apos;; font-size: 10px; font-variation-settings: &apos;wght&apos; 300; font-weight: 300; isolation: isolate; letter-spacing: 0em;"><tspan x="0" y="0">90%</tspan></text>
    <text transform="translate(155.91 176.47)" style="fill: #333; font-family: SourceSans3-Light, &apos;Source Sans 3&apos;; font-size: 10px; font-variation-settings: &apos;wght&apos; 300; font-weight: 300; isolation: isolate;"><tspan x="0" y="0" style="letter-spacing: 0em;">p</tspan><tspan x="5.54" y="0" style="letter-spacing: 0em;">r</tspan><tspan x="8.71" y="0" style="letter-spacing: 0em;">edi</tspan><tspan x="21.57" y="0" style="letter-spacing: 0em;">c</tspan><tspan x="26.06" y="0" style="letter-spacing: .01em;">tion</tspan></text>
    <text transform="translate(155.91 187.27)" style="fill: #333; font-family: SourceSans3-Light, &apos;Source Sans 3&apos;; font-size: 10px; font-variation-settings: &apos;wght&apos; 300; font-weight: 300; isolation: isolate;"><tspan x="0" y="0" style="letter-spacing: 0em;">in</tspan><tspan x="7.81" y="0" style="letter-spacing: 0em;">t</tspan><tspan x="10.92" y="0" style="letter-spacing: .01em;">e</tspan><tspan x="15.85" y="0" style="letter-spacing: .05em;">r</tspan><tspan x="19.48" y="0" style="letter-spacing: -.01em;">v</tspan><tspan x="23.72" y="0" style="letter-spacing: .01em;">al</tspan></text>
    <text transform="translate(4.84 150.64)" style="fill: #333; font-family: SourceSans3Italic-LightItalic, &apos;Source Sans 3&apos;; font-size: 9.25px; font-style: italic; font-variation-settings: &apos;wght&apos; 300; font-weight: 300; isolation: isolate;"><tspan x="0" y="0">20ᵗʰ</tspan></text>
    <text transform="translate(4.84 184.68)" style="fill: #333; font-family: SourceSans3Italic-LightItalic, &apos;Source Sans 3&apos;; font-size: 9.25px; font-style: italic; font-variation-settings: &apos;wght&apos; 300; font-weight: 300; isolation: isolate;"><tspan x="0" y="0">10ᵗʰ</tspan></text>
    <text transform="translate(9.11 203.7)" style="fill: #333; font-family: SourceSans3Italic-LightItalic, &apos;Source Sans 3&apos;; font-size: 9.25px; font-style: italic; font-variation-settings: &apos;wght&apos; 300; font-weight: 300; isolation: isolate;"><tspan x="0" y="0">5ᵗʰ</tspan></text>
    <text transform="translate(4.84 130.36)" style="fill: #333; font-family: SourceSans3Italic-LightItalic, &apos;Source Sans 3&apos;; font-size: 9.25px; font-style: italic; font-variation-settings: &apos;wght&apos; 300; font-weight: 300; isolation: isolate;"><tspan x="0" y="0">30ᵗʰ</tspan></text>
    <rect x="20.3" y="201.61" width="3" height="47.51" style="fill: #7a0000;"/>
    <rect x="20.3" y="182.19" width="3" height="19.37" style="fill: #b77040;"/>
    <rect x="20.3" y="148.19" width="3" height="33.9" style="fill: #efe19c;"/>
    <line x1="19.3" y1="148.05" x2="23.3" y2="148.05" style="fill: none; stroke: #333; stroke-width: .5px;"/>
    <line x1="19.3" y1="127.77" x2="23.3" y2="127.77" style="fill: none; stroke: #333; stroke-width: .5px;"/>
    <line x1="19.3" y1="182.09" x2="23.3" y2="182.09" style="fill: none; stroke: #333; stroke-width: .5px;"/>
    <line x1="19.3" y1="201.61" x2="23.3" y2="201.61" style="fill: none; stroke: #333; stroke-width: .5px;"/>
    <polyline points="20.3 249.12 208.91 249.12 206.92 249.12 204.93 249.12 202.94 249.12 200.95 249.12 198.96 249.12 196.97 249.12 194.99 249.12 193 249.12 191.01 249.12 189.02 249.12 187.03 249.12 185.04 249.12 183.05 249.12 181.06 249.12 179.07 249.12 177.08 249.12 175.09 249.12 173.1 249.12 171.11 249.12 169.12 249.12 167.13 249.12 165.14 249.12 163.16 249.12 161.17 249.12 159.18 249.12 157.19 249.12 155.2 249.12 153.21 249.12 151.22 249.12 149.23 249.12 147.24 249.12 145.25 249.12 143.26 249.12 141.27 249.12 139.28 249.12 137.29 249.12 135.3 249.12 133.31 249.12 131.33 249.12 129.34 249.12 127.35 249.12 125.36 249.12 123.37 249.12 121.38 249.12 119.39 249.12 117.4 249.12 115.41 249.12 113.42 249.12 111.43 249.12 109.44 249.12 107.45 249.12 105.46 249.12 103.47 249.12 101.48 249.12 99.49 249.12 97.51 249.12 95.52 249.12 93.53 249.12 91.54 249.12 89.55 249.12 87.56 249.12 85.57 249.12 83.58 249.12 81.59 249.12 79.6 249.12 77.61 249.12 75.62 249.12 73.63 249.12 71.64 249.12 69.65 249.12 67.66 249.12 65.68 249.12 63.69 249.12 61.7 249.12 59.71 249.12 57.72 249.12 55.73 249.12 53.74 249.12 51.75 249.12 49.76 249.12 47.77 249.12 45.78 249.12 43.79 249.12 41.8 249.12 39.81 249.12 37.82 249.12 35.83 249.12 33.85 249.12 31.86 249.12 29.87 249.12 27.88 249.12 25.89 249.12 23.9 249.12 21.91 249.12" style="fill: none; stroke: #949494; stroke-miterlimit: 10; stroke-width: .25px;"/>
  </g>
  <rect x="131.46" y="176.47" width="4.91" height="22.91" style="fill: #eddbcf;"/>
</svg>